<mxfile host="app.diagrams.net" modified="2022-09-06T08:55:24.375Z" agent="5.0 (Windows NT 10.0; Win64; x64) AppleWebKit/537.36 (KHTML, like Gecko) Chrome/105.0.0.0 Safari/537.36 Edg/105.0.1343.27" etag="JFaU8w9wwjFf0QdTMGNk" version="20.2.8" type="github">
  <diagram id="nXU3pfddEFUmAPJ9pOyv" name="Page-1">
    <mxGraphModel dx="1497" dy="802" grid="1" gridSize="10" guides="1" tooltips="1" connect="1" arrows="1" fold="1" page="1" pageScale="1" pageWidth="850" pageHeight="1100" math="0" shadow="0">
      <root>
        <mxCell id="0" />
        <mxCell id="1" parent="0" />
        <mxCell id="cjOnqs_CUeYG5httte-h-1" value="src" style="text;html=1;strokeColor=none;fillColor=none;align=center;verticalAlign=middle;whiteSpace=wrap;rounded=0;" vertex="1" parent="1">
          <mxGeometry x="530" y="50" width="60" height="30" as="geometry" />
        </mxCell>
        <mxCell id="cjOnqs_CUeYG5httte-h-2" value="" style="endArrow=none;html=1;rounded=0;entryX=0.5;entryY=1;entryDx=0;entryDy=0;" edge="1" parent="1" target="cjOnqs_CUeYG5httte-h-1">
          <mxGeometry width="50" height="50" relative="1" as="geometry">
            <mxPoint x="560" y="120" as="sourcePoint" />
            <mxPoint x="450" y="370" as="targetPoint" />
          </mxGeometry>
        </mxCell>
        <mxCell id="cjOnqs_CUeYG5httte-h-4" value="" style="endArrow=none;html=1;rounded=0;" edge="1" parent="1">
          <mxGeometry width="50" height="50" relative="1" as="geometry">
            <mxPoint x="50" y="120" as="sourcePoint" />
            <mxPoint x="2790" y="120" as="targetPoint" />
          </mxGeometry>
        </mxCell>
        <mxCell id="cjOnqs_CUeYG5httte-h-6" value="" style="endArrow=none;html=1;rounded=0;exitX=0.5;exitY=0;exitDx=0;exitDy=0;exitPerimeter=0;" edge="1" parent="1">
          <mxGeometry width="50" height="50" relative="1" as="geometry">
            <mxPoint x="50" y="150" as="sourcePoint" />
            <mxPoint x="50" y="120" as="targetPoint" />
          </mxGeometry>
        </mxCell>
        <mxCell id="cjOnqs_CUeYG5httte-h-3" value="" style="image;html=1;image=img/lib/clip_art/general/Empty_Folder_128x128.png" vertex="1" parent="1">
          <mxGeometry x="20" y="155" width="30" height="20" as="geometry" />
        </mxCell>
        <mxCell id="cjOnqs_CUeYG5httte-h-5" value="Assets" style="text;html=1;strokeColor=none;fillColor=none;align=center;verticalAlign=middle;whiteSpace=wrap;rounded=0;" vertex="1" parent="1">
          <mxGeometry x="40" y="150" width="50" height="30" as="geometry" />
        </mxCell>
        <mxCell id="cjOnqs_CUeYG5httte-h-16" value="" style="endArrow=none;html=1;rounded=0;exitX=0.5;exitY=0;exitDx=0;exitDy=0;exitPerimeter=0;" edge="1" parent="1">
          <mxGeometry width="50" height="50" relative="1" as="geometry">
            <mxPoint x="549.71" y="150" as="sourcePoint" />
            <mxPoint x="549.71" y="120" as="targetPoint" />
          </mxGeometry>
        </mxCell>
        <mxCell id="cjOnqs_CUeYG5httte-h-17" value="" style="image;html=1;image=img/lib/clip_art/general/Empty_Folder_128x128.png" vertex="1" parent="1">
          <mxGeometry x="530" y="155" width="30" height="20" as="geometry" />
        </mxCell>
        <mxCell id="cjOnqs_CUeYG5httte-h-18" value="AppConstants" style="text;html=1;strokeColor=none;fillColor=none;align=center;verticalAlign=middle;whiteSpace=wrap;rounded=0;" vertex="1" parent="1">
          <mxGeometry x="560" y="150" width="80" height="30" as="geometry" />
        </mxCell>
        <mxCell id="cjOnqs_CUeYG5httte-h-19" value="" style="endArrow=none;html=1;rounded=0;exitX=0.5;exitY=0;exitDx=0;exitDy=0;exitPerimeter=0;" edge="1" parent="1">
          <mxGeometry width="50" height="50" relative="1" as="geometry">
            <mxPoint x="844.75" y="150" as="sourcePoint" />
            <mxPoint x="844.75" y="120" as="targetPoint" />
          </mxGeometry>
        </mxCell>
        <mxCell id="cjOnqs_CUeYG5httte-h-20" value="" style="image;html=1;image=img/lib/clip_art/general/Empty_Folder_128x128.png" vertex="1" parent="1">
          <mxGeometry x="830" y="155" width="30" height="20" as="geometry" />
        </mxCell>
        <mxCell id="cjOnqs_CUeYG5httte-h-21" value="layouts" style="text;html=1;strokeColor=none;fillColor=none;align=center;verticalAlign=middle;whiteSpace=wrap;rounded=0;" vertex="1" parent="1">
          <mxGeometry x="840" y="150" width="80" height="30" as="geometry" />
        </mxCell>
        <mxCell id="cjOnqs_CUeYG5httte-h-23" value="" style="endArrow=none;html=1;rounded=0;exitX=0.5;exitY=0;exitDx=0;exitDy=0;exitPerimeter=0;" edge="1" parent="1">
          <mxGeometry width="50" height="50" relative="1" as="geometry">
            <mxPoint x="1096.02" y="150" as="sourcePoint" />
            <mxPoint x="1096.02" y="120" as="targetPoint" />
          </mxGeometry>
        </mxCell>
        <mxCell id="cjOnqs_CUeYG5httte-h-24" value="" style="image;html=1;image=img/lib/clip_art/general/Empty_Folder_128x128.png" vertex="1" parent="1">
          <mxGeometry x="1076.31" y="155" width="30" height="20" as="geometry" />
        </mxCell>
        <mxCell id="cjOnqs_CUeYG5httte-h-25" value="pages" style="text;html=1;strokeColor=none;fillColor=none;align=center;verticalAlign=middle;whiteSpace=wrap;rounded=0;" vertex="1" parent="1">
          <mxGeometry x="1086.31" y="150" width="80" height="30" as="geometry" />
        </mxCell>
        <mxCell id="cjOnqs_CUeYG5httte-h-26" value="" style="endArrow=none;html=1;rounded=0;exitX=0.5;exitY=0;exitDx=0;exitDy=0;exitPerimeter=0;" edge="1" parent="1">
          <mxGeometry width="50" height="50" relative="1" as="geometry">
            <mxPoint x="1506.02" y="150" as="sourcePoint" />
            <mxPoint x="1506.02" y="120" as="targetPoint" />
          </mxGeometry>
        </mxCell>
        <mxCell id="cjOnqs_CUeYG5httte-h-27" value="" style="image;html=1;image=img/lib/clip_art/general/Empty_Folder_128x128.png" vertex="1" parent="1">
          <mxGeometry x="1486.31" y="155" width="30" height="20" as="geometry" />
        </mxCell>
        <mxCell id="cjOnqs_CUeYG5httte-h-28" value="components" style="text;html=1;strokeColor=none;fillColor=none;align=center;verticalAlign=middle;whiteSpace=wrap;rounded=0;" vertex="1" parent="1">
          <mxGeometry x="1516.31" y="150" width="80" height="30" as="geometry" />
        </mxCell>
        <mxCell id="cjOnqs_CUeYG5httte-h-29" value="" style="endArrow=none;html=1;rounded=0;exitX=0.5;exitY=0;exitDx=0;exitDy=0;exitPerimeter=0;" edge="1" parent="1">
          <mxGeometry width="50" height="50" relative="1" as="geometry">
            <mxPoint x="1858.69" y="150" as="sourcePoint" />
            <mxPoint x="1858.69" y="120" as="targetPoint" />
          </mxGeometry>
        </mxCell>
        <mxCell id="cjOnqs_CUeYG5httte-h-30" value="" style="image;html=1;image=img/lib/clip_art/general/Empty_Folder_128x128.png" vertex="1" parent="1">
          <mxGeometry x="1838.98" y="155" width="30" height="20" as="geometry" />
        </mxCell>
        <mxCell id="cjOnqs_CUeYG5httte-h-31" value="redux" style="text;html=1;strokeColor=none;fillColor=none;align=center;verticalAlign=middle;whiteSpace=wrap;rounded=0;" vertex="1" parent="1">
          <mxGeometry x="1848.98" y="150" width="80" height="30" as="geometry" />
        </mxCell>
        <mxCell id="cjOnqs_CUeYG5httte-h-32" value="" style="endArrow=none;html=1;rounded=0;exitX=0.5;exitY=0;exitDx=0;exitDy=0;exitPerimeter=0;" edge="1" parent="1">
          <mxGeometry width="50" height="50" relative="1" as="geometry">
            <mxPoint x="2306.0200000000004" y="150" as="sourcePoint" />
            <mxPoint x="2306.0200000000004" y="120" as="targetPoint" />
          </mxGeometry>
        </mxCell>
        <mxCell id="cjOnqs_CUeYG5httte-h-33" value="" style="image;html=1;image=img/lib/clip_art/general/Empty_Folder_128x128.png" vertex="1" parent="1">
          <mxGeometry x="2286.31" y="155" width="30" height="20" as="geometry" />
        </mxCell>
        <mxCell id="cjOnqs_CUeYG5httte-h-34" value="routes" style="text;html=1;strokeColor=none;fillColor=none;align=center;verticalAlign=middle;whiteSpace=wrap;rounded=0;" vertex="1" parent="1">
          <mxGeometry x="2296.31" y="150" width="80" height="30" as="geometry" />
        </mxCell>
        <mxCell id="cjOnqs_CUeYG5httte-h-35" value="" style="endArrow=none;html=1;rounded=0;exitX=0.5;exitY=0;exitDx=0;exitDy=0;exitPerimeter=0;" edge="1" parent="1">
          <mxGeometry width="50" height="50" relative="1" as="geometry">
            <mxPoint x="2786.02" y="150" as="sourcePoint" />
            <mxPoint x="2786.02" y="120" as="targetPoint" />
          </mxGeometry>
        </mxCell>
        <mxCell id="cjOnqs_CUeYG5httte-h-36" value="" style="image;html=1;image=img/lib/clip_art/general/Empty_Folder_128x128.png" vertex="1" parent="1">
          <mxGeometry x="2776.31" y="152.5" width="20" height="15" as="geometry" />
        </mxCell>
        <mxCell id="cjOnqs_CUeYG5httte-h-37" value="helpers" style="text;html=1;strokeColor=none;fillColor=none;align=center;verticalAlign=middle;whiteSpace=wrap;rounded=0;" vertex="1" parent="1">
          <mxGeometry x="2776.31" y="150" width="80" height="20" as="geometry" />
        </mxCell>
        <mxCell id="cjOnqs_CUeYG5httte-h-38" value="" style="endArrow=none;html=1;rounded=0;" edge="1" parent="1">
          <mxGeometry width="50" height="50" relative="1" as="geometry">
            <mxPoint x="2786.31" y="457.5" as="sourcePoint" />
            <mxPoint x="2786.31" y="177.5" as="targetPoint" />
          </mxGeometry>
        </mxCell>
        <mxCell id="cjOnqs_CUeYG5httte-h-41" value="" style="endArrow=none;html=1;rounded=0;exitX=-0.141;exitY=0.497;exitDx=0;exitDy=0;exitPerimeter=0;" edge="1" parent="1" source="cjOnqs_CUeYG5httte-h-43">
          <mxGeometry width="50" height="50" relative="1" as="geometry">
            <mxPoint x="2846.31" y="197.48" as="sourcePoint" />
            <mxPoint x="2786.31" y="197.48" as="targetPoint" />
          </mxGeometry>
        </mxCell>
        <mxCell id="cjOnqs_CUeYG5httte-h-43" value="" style="aspect=fixed;perimeter=ellipsePerimeter;html=1;align=center;shadow=0;dashed=0;spacingTop=3;image;image=img/lib/active_directory/folder.svg;" vertex="1" parent="1">
          <mxGeometry x="2826.31" y="187.5" width="14.6" height="20" as="geometry" />
        </mxCell>
        <mxCell id="cjOnqs_CUeYG5httte-h-46" value="api" style="text;html=1;strokeColor=none;fillColor=none;align=center;verticalAlign=middle;whiteSpace=wrap;rounded=0;" vertex="1" parent="1">
          <mxGeometry x="2840.91" y="187.5" width="50" height="20" as="geometry" />
        </mxCell>
        <mxCell id="cjOnqs_CUeYG5httte-h-47" value="" style="endArrow=none;html=1;rounded=0;exitX=-0.141;exitY=0.497;exitDx=0;exitDy=0;exitPerimeter=0;" edge="1" parent="1" source="cjOnqs_CUeYG5httte-h-48">
          <mxGeometry width="50" height="50" relative="1" as="geometry">
            <mxPoint x="2846.71" y="457.48" as="sourcePoint" />
            <mxPoint x="2786.71" y="457.48" as="targetPoint" />
          </mxGeometry>
        </mxCell>
        <mxCell id="cjOnqs_CUeYG5httte-h-48" value="" style="aspect=fixed;perimeter=ellipsePerimeter;html=1;align=center;shadow=0;dashed=0;spacingTop=3;image;image=img/lib/active_directory/folder.svg;" vertex="1" parent="1">
          <mxGeometry x="2826.71" y="447.5" width="14.6" height="20" as="geometry" />
        </mxCell>
        <mxCell id="cjOnqs_CUeYG5httte-h-49" value="utils" style="text;html=1;strokeColor=none;fillColor=none;align=center;verticalAlign=middle;whiteSpace=wrap;rounded=0;" vertex="1" parent="1">
          <mxGeometry x="2841.31" y="447.5" width="50" height="20" as="geometry" />
        </mxCell>
        <mxCell id="cjOnqs_CUeYG5httte-h-50" value="" style="shape=partialRectangle;whiteSpace=wrap;html=1;top=0;left=0;fillColor=none;rotation=90;" vertex="1" parent="1">
          <mxGeometry x="2866.31" y="177.5" width="25" height="85" as="geometry" />
        </mxCell>
        <mxCell id="cjOnqs_CUeYG5httte-h-51" value="" style="verticalLabelPosition=bottom;html=1;verticalAlign=top;strokeWidth=1;align=center;outlineConnect=0;dashed=0;outlineConnect=0;shape=mxgraph.aws3d.file;aspect=fixed;strokeColor=#292929;" vertex="1" parent="1">
          <mxGeometry x="2926.31" y="217.5" width="13.09" height="30" as="geometry" />
        </mxCell>
        <mxCell id="cjOnqs_CUeYG5httte-h-52" value="apiCore.ts" style="text;html=1;strokeColor=none;fillColor=none;align=center;verticalAlign=middle;whiteSpace=wrap;rounded=0;" vertex="1" parent="1">
          <mxGeometry x="2939.4" y="222.5" width="66.91" height="20" as="geometry" />
        </mxCell>
        <mxCell id="cjOnqs_CUeYG5httte-h-53" value="" style="shape=partialRectangle;whiteSpace=wrap;html=1;top=0;left=0;fillColor=none;rotation=90;" vertex="1" parent="1">
          <mxGeometry x="2856.31" y="212.5" width="45" height="85" as="geometry" />
        </mxCell>
        <mxCell id="cjOnqs_CUeYG5httte-h-54" value="" style="verticalLabelPosition=bottom;html=1;verticalAlign=top;strokeWidth=1;align=center;outlineConnect=0;dashed=0;outlineConnect=0;shape=mxgraph.aws3d.file;aspect=fixed;strokeColor=#292929;" vertex="1" parent="1">
          <mxGeometry x="2926.31" y="262.5" width="13.09" height="30" as="geometry" />
        </mxCell>
        <mxCell id="cjOnqs_CUeYG5httte-h-55" value="auth.ts" style="text;html=1;strokeColor=none;fillColor=none;align=center;verticalAlign=middle;whiteSpace=wrap;rounded=0;" vertex="1" parent="1">
          <mxGeometry x="2939.4" y="267.5" width="56.91" height="20" as="geometry" />
        </mxCell>
        <mxCell id="cjOnqs_CUeYG5httte-h-56" value="" style="shape=partialRectangle;whiteSpace=wrap;html=1;top=0;left=0;fillColor=none;rotation=90;" vertex="1" parent="1">
          <mxGeometry x="2851.31" y="262.5" width="55" height="85" as="geometry" />
        </mxCell>
        <mxCell id="cjOnqs_CUeYG5httte-h-57" value="" style="verticalLabelPosition=bottom;html=1;verticalAlign=top;strokeWidth=1;align=center;outlineConnect=0;dashed=0;outlineConnect=0;shape=mxgraph.aws3d.file;aspect=fixed;strokeColor=#292929;" vertex="1" parent="1">
          <mxGeometry x="2926.31" y="317.5" width="13.09" height="30" as="geometry" />
        </mxCell>
        <mxCell id="cjOnqs_CUeYG5httte-h-58" value="config-version.ts" style="text;html=1;strokeColor=none;fillColor=none;align=center;verticalAlign=middle;whiteSpace=wrap;rounded=0;" vertex="1" parent="1">
          <mxGeometry x="2939.4" y="322.5" width="106.91" height="20" as="geometry" />
        </mxCell>
        <mxCell id="cjOnqs_CUeYG5httte-h-59" value="" style="shape=partialRectangle;whiteSpace=wrap;html=1;top=0;left=0;fillColor=none;rotation=90;" vertex="1" parent="1">
          <mxGeometry x="2845.06" y="318.75" width="67.5" height="85" as="geometry" />
        </mxCell>
        <mxCell id="cjOnqs_CUeYG5httte-h-60" value="" style="verticalLabelPosition=bottom;html=1;verticalAlign=top;strokeWidth=1;align=center;outlineConnect=0;dashed=0;outlineConnect=0;shape=mxgraph.aws3d.file;aspect=fixed;strokeColor=#292929;" vertex="1" parent="1">
          <mxGeometry x="2926.31" y="377.5" width="13.09" height="30" as="geometry" />
        </mxCell>
        <mxCell id="cjOnqs_CUeYG5httte-h-61" value="warehouse-list.ts" style="text;html=1;strokeColor=none;fillColor=none;align=center;verticalAlign=middle;whiteSpace=wrap;rounded=0;" vertex="1" parent="1">
          <mxGeometry x="2939.4" y="382.5" width="106.91" height="20" as="geometry" />
        </mxCell>
        <mxCell id="cjOnqs_CUeYG5httte-h-62" value="" style="image;html=1;image=img/lib/clip_art/general/Empty_Folder_128x128.png" vertex="1" parent="1">
          <mxGeometry x="520" y="55" width="30" height="20" as="geometry" />
        </mxCell>
        <mxCell id="cjOnqs_CUeYG5httte-h-63" value="" style="shape=partialRectangle;whiteSpace=wrap;html=1;top=0;left=0;fillColor=none;rotation=90;" vertex="1" parent="1">
          <mxGeometry x="2866.31" y="437.5" width="25" height="85" as="geometry" />
        </mxCell>
        <mxCell id="cjOnqs_CUeYG5httte-h-64" value="" style="verticalLabelPosition=bottom;html=1;verticalAlign=top;strokeWidth=1;align=center;outlineConnect=0;dashed=0;outlineConnect=0;shape=mxgraph.aws3d.file;aspect=fixed;strokeColor=#292929;" vertex="1" parent="1">
          <mxGeometry x="2926.31" y="477.5" width="13.09" height="30" as="geometry" />
        </mxCell>
        <mxCell id="cjOnqs_CUeYG5httte-h-65" value="dateFormat.ts" style="text;html=1;strokeColor=none;fillColor=none;align=center;verticalAlign=middle;whiteSpace=wrap;rounded=0;" vertex="1" parent="1">
          <mxGeometry x="2946.31" y="482.5" width="66.91" height="20" as="geometry" />
        </mxCell>
        <mxCell id="cjOnqs_CUeYG5httte-h-66" value="" style="shape=partialRectangle;whiteSpace=wrap;html=1;top=0;left=0;fillColor=none;rotation=90;" vertex="1" parent="1">
          <mxGeometry x="2856.31" y="472.5" width="45" height="85" as="geometry" />
        </mxCell>
        <mxCell id="cjOnqs_CUeYG5httte-h-67" value="" style="verticalLabelPosition=bottom;html=1;verticalAlign=top;strokeWidth=1;align=center;outlineConnect=0;dashed=0;outlineConnect=0;shape=mxgraph.aws3d.file;aspect=fixed;strokeColor=#292929;" vertex="1" parent="1">
          <mxGeometry x="2926.31" y="522.5" width="13.09" height="30" as="geometry" />
        </mxCell>
        <mxCell id="cjOnqs_CUeYG5httte-h-68" value="array.ts" style="text;html=1;strokeColor=none;fillColor=none;align=center;verticalAlign=middle;whiteSpace=wrap;rounded=0;" vertex="1" parent="1">
          <mxGeometry x="2939.4" y="527.5" width="56.91" height="20" as="geometry" />
        </mxCell>
        <mxCell id="cjOnqs_CUeYG5httte-h-69" value="" style="shape=partialRectangle;whiteSpace=wrap;html=1;top=0;left=0;fillColor=none;rotation=90;" vertex="1" parent="1">
          <mxGeometry x="2851.31" y="522.5" width="55" height="85" as="geometry" />
        </mxCell>
        <mxCell id="cjOnqs_CUeYG5httte-h-70" value="" style="verticalLabelPosition=bottom;html=1;verticalAlign=top;strokeWidth=1;align=center;outlineConnect=0;dashed=0;outlineConnect=0;shape=mxgraph.aws3d.file;aspect=fixed;strokeColor=#292929;" vertex="1" parent="1">
          <mxGeometry x="2926.31" y="577.5" width="13.09" height="30" as="geometry" />
        </mxCell>
        <mxCell id="cjOnqs_CUeYG5httte-h-71" value="konva.ts" style="text;html=1;strokeColor=none;fillColor=none;align=center;verticalAlign=middle;whiteSpace=wrap;rounded=0;" vertex="1" parent="1">
          <mxGeometry x="2939.4" y="582.5" width="66.91" height="20" as="geometry" />
        </mxCell>
        <mxCell id="cjOnqs_CUeYG5httte-h-72" value="" style="shape=partialRectangle;whiteSpace=wrap;html=1;top=0;left=0;fillColor=none;rotation=90;" vertex="1" parent="1">
          <mxGeometry x="2845.06" y="578.75" width="67.5" height="85" as="geometry" />
        </mxCell>
        <mxCell id="cjOnqs_CUeYG5httte-h-73" value="" style="verticalLabelPosition=bottom;html=1;verticalAlign=top;strokeWidth=1;align=center;outlineConnect=0;dashed=0;outlineConnect=0;shape=mxgraph.aws3d.file;aspect=fixed;strokeColor=#292929;" vertex="1" parent="1">
          <mxGeometry x="2926.31" y="637.5" width="13.09" height="30" as="geometry" />
        </mxCell>
        <mxCell id="cjOnqs_CUeYG5httte-h-74" value="layouts.ts" style="text;html=1;strokeColor=none;fillColor=none;align=center;verticalAlign=middle;whiteSpace=wrap;rounded=0;" vertex="1" parent="1">
          <mxGeometry x="2939.4" y="642.5" width="76.91" height="20" as="geometry" />
        </mxCell>
        <mxCell id="cjOnqs_CUeYG5httte-h-75" value="" style="endArrow=none;html=1;rounded=0;" edge="1" parent="1">
          <mxGeometry width="50" height="50" relative="1" as="geometry">
            <mxPoint x="2306.31" y="360" as="sourcePoint" />
            <mxPoint x="2306.3099999999995" y="180" as="targetPoint" />
          </mxGeometry>
        </mxCell>
        <mxCell id="cjOnqs_CUeYG5httte-h-76" value="" style="endArrow=none;html=1;rounded=0;exitX=-0.141;exitY=0.497;exitDx=0;exitDy=0;exitPerimeter=0;" edge="1" parent="1" source="cjOnqs_CUeYG5httte-h-77">
          <mxGeometry width="50" height="50" relative="1" as="geometry">
            <mxPoint x="2366.31" y="199.98" as="sourcePoint" />
            <mxPoint x="2306.3099999999995" y="199.98000000000002" as="targetPoint" />
          </mxGeometry>
        </mxCell>
        <mxCell id="cjOnqs_CUeYG5httte-h-77" value="" style="aspect=fixed;perimeter=ellipsePerimeter;html=1;align=center;shadow=0;dashed=0;spacingTop=3;image;image=img/lib/active_directory/folder.svg;" vertex="1" parent="1">
          <mxGeometry x="2346.31" y="190" width="14.6" height="20" as="geometry" />
        </mxCell>
        <mxCell id="cjOnqs_CUeYG5httte-h-78" value="PublicRoute" style="text;html=1;strokeColor=none;fillColor=none;align=center;verticalAlign=middle;whiteSpace=wrap;rounded=0;" vertex="1" parent="1">
          <mxGeometry x="2360.91" y="190" width="75.4" height="20" as="geometry" />
        </mxCell>
        <mxCell id="cjOnqs_CUeYG5httte-h-79" value="" style="endArrow=none;html=1;rounded=0;exitX=-0.141;exitY=0.497;exitDx=0;exitDy=0;exitPerimeter=0;" edge="1" parent="1" source="cjOnqs_CUeYG5httte-h-80">
          <mxGeometry width="50" height="50" relative="1" as="geometry">
            <mxPoint x="2366.71" y="359.98" as="sourcePoint" />
            <mxPoint x="2306.71" y="359.98000000000025" as="targetPoint" />
          </mxGeometry>
        </mxCell>
        <mxCell id="cjOnqs_CUeYG5httte-h-80" value="" style="aspect=fixed;perimeter=ellipsePerimeter;html=1;align=center;shadow=0;dashed=0;spacingTop=3;image;image=img/lib/active_directory/folder.svg;" vertex="1" parent="1">
          <mxGeometry x="2346.71" y="350" width="14.6" height="20" as="geometry" />
        </mxCell>
        <mxCell id="cjOnqs_CUeYG5httte-h-81" value="PrivateRoute" style="text;html=1;strokeColor=none;fillColor=none;align=center;verticalAlign=middle;whiteSpace=wrap;rounded=0;" vertex="1" parent="1">
          <mxGeometry x="2361.31" y="350" width="85" height="20" as="geometry" />
        </mxCell>
        <mxCell id="cjOnqs_CUeYG5httte-h-82" value="" style="shape=partialRectangle;whiteSpace=wrap;html=1;top=0;left=0;fillColor=none;rotation=90;" vertex="1" parent="1">
          <mxGeometry x="2386.31" y="180" width="25" height="85" as="geometry" />
        </mxCell>
        <mxCell id="cjOnqs_CUeYG5httte-h-83" value="" style="verticalLabelPosition=bottom;html=1;verticalAlign=top;strokeWidth=1;align=center;outlineConnect=0;dashed=0;outlineConnect=0;shape=mxgraph.aws3d.file;aspect=fixed;strokeColor=#292929;" vertex="1" parent="1">
          <mxGeometry x="2446.31" y="220" width="13.09" height="30" as="geometry" />
        </mxCell>
        <mxCell id="cjOnqs_CUeYG5httte-h-84" value="Login page" style="text;html=1;strokeColor=none;fillColor=none;align=center;verticalAlign=middle;whiteSpace=wrap;rounded=0;" vertex="1" parent="1">
          <mxGeometry x="2459.4" y="225" width="66.91" height="20" as="geometry" />
        </mxCell>
        <mxCell id="cjOnqs_CUeYG5httte-h-85" value="" style="shape=partialRectangle;whiteSpace=wrap;html=1;top=0;left=0;fillColor=none;rotation=90;" vertex="1" parent="1">
          <mxGeometry x="2376.31" y="215" width="45" height="85" as="geometry" />
        </mxCell>
        <mxCell id="cjOnqs_CUeYG5httte-h-86" value="" style="verticalLabelPosition=bottom;html=1;verticalAlign=top;strokeWidth=1;align=center;outlineConnect=0;dashed=0;outlineConnect=0;shape=mxgraph.aws3d.file;aspect=fixed;strokeColor=#292929;" vertex="1" parent="1">
          <mxGeometry x="2446.31" y="265" width="13.09" height="30" as="geometry" />
        </mxCell>
        <mxCell id="cjOnqs_CUeYG5httte-h-87" value="Error page" style="text;html=1;strokeColor=none;fillColor=none;align=center;verticalAlign=middle;whiteSpace=wrap;rounded=0;" vertex="1" parent="1">
          <mxGeometry x="2459.4" y="270" width="66.91" height="20" as="geometry" />
        </mxCell>
        <mxCell id="cjOnqs_CUeYG5httte-h-94" value="" style="shape=partialRectangle;whiteSpace=wrap;html=1;top=0;left=0;fillColor=none;rotation=90;" vertex="1" parent="1">
          <mxGeometry x="2386.31" y="340" width="25" height="85" as="geometry" />
        </mxCell>
        <mxCell id="cjOnqs_CUeYG5httte-h-95" value="" style="verticalLabelPosition=bottom;html=1;verticalAlign=top;strokeWidth=1;align=center;outlineConnect=0;dashed=0;outlineConnect=0;shape=mxgraph.aws3d.file;aspect=fixed;strokeColor=#292929;" vertex="1" parent="1">
          <mxGeometry x="2446.31" y="380" width="13.09" height="30" as="geometry" />
        </mxCell>
        <mxCell id="cjOnqs_CUeYG5httte-h-96" value="Home page" style="text;html=1;strokeColor=none;fillColor=none;align=center;verticalAlign=middle;whiteSpace=wrap;rounded=0;" vertex="1" parent="1">
          <mxGeometry x="2466.31" y="385" width="66.91" height="20" as="geometry" />
        </mxCell>
        <mxCell id="cjOnqs_CUeYG5httte-h-97" value="" style="shape=partialRectangle;whiteSpace=wrap;html=1;top=0;left=0;fillColor=none;rotation=90;" vertex="1" parent="1">
          <mxGeometry x="2376.31" y="375" width="45" height="85" as="geometry" />
        </mxCell>
        <mxCell id="cjOnqs_CUeYG5httte-h-98" value="" style="verticalLabelPosition=bottom;html=1;verticalAlign=top;strokeWidth=1;align=center;outlineConnect=0;dashed=0;outlineConnect=0;shape=mxgraph.aws3d.file;aspect=fixed;strokeColor=#292929;" vertex="1" parent="1">
          <mxGeometry x="2446.31" y="425" width="13.09" height="30" as="geometry" />
        </mxCell>
        <mxCell id="cjOnqs_CUeYG5httte-h-99" value="Warehouse list" style="text;html=1;strokeColor=none;fillColor=none;align=center;verticalAlign=middle;whiteSpace=wrap;rounded=0;" vertex="1" parent="1">
          <mxGeometry x="2459.4" y="430" width="96.91" height="20" as="geometry" />
        </mxCell>
        <mxCell id="cjOnqs_CUeYG5httte-h-100" value="" style="shape=partialRectangle;whiteSpace=wrap;html=1;top=0;left=0;fillColor=none;rotation=90;" vertex="1" parent="1">
          <mxGeometry x="2371.31" y="425" width="55" height="85" as="geometry" />
        </mxCell>
        <mxCell id="cjOnqs_CUeYG5httte-h-101" value="" style="verticalLabelPosition=bottom;html=1;verticalAlign=top;strokeWidth=1;align=center;outlineConnect=0;dashed=0;outlineConnect=0;shape=mxgraph.aws3d.file;aspect=fixed;strokeColor=#292929;" vertex="1" parent="1">
          <mxGeometry x="2446.31" y="480" width="13.09" height="30" as="geometry" />
        </mxCell>
        <mxCell id="cjOnqs_CUeYG5httte-h-102" value="Config Version page" style="text;html=1;strokeColor=none;fillColor=none;align=center;verticalAlign=middle;whiteSpace=wrap;rounded=0;" vertex="1" parent="1">
          <mxGeometry x="2459.4" y="485" width="126.91" height="20" as="geometry" />
        </mxCell>
        <mxCell id="cjOnqs_CUeYG5httte-h-103" value="" style="shape=partialRectangle;whiteSpace=wrap;html=1;top=0;left=0;fillColor=none;rotation=90;" vertex="1" parent="1">
          <mxGeometry x="2365.06" y="481.25" width="67.5" height="85" as="geometry" />
        </mxCell>
        <mxCell id="cjOnqs_CUeYG5httte-h-104" value="" style="verticalLabelPosition=bottom;html=1;verticalAlign=top;strokeWidth=1;align=center;outlineConnect=0;dashed=0;outlineConnect=0;shape=mxgraph.aws3d.file;aspect=fixed;strokeColor=#292929;" vertex="1" parent="1">
          <mxGeometry x="2446.31" y="540" width="13.09" height="30" as="geometry" />
        </mxCell>
        <mxCell id="cjOnqs_CUeYG5httte-h-105" value="Config Version details page" style="text;html=1;strokeColor=none;fillColor=none;align=center;verticalAlign=middle;whiteSpace=wrap;rounded=0;" vertex="1" parent="1">
          <mxGeometry x="2459.4" y="545" width="166.91" height="20" as="geometry" />
        </mxCell>
        <mxCell id="cjOnqs_CUeYG5httte-h-106" value="" style="endArrow=none;html=1;rounded=0;exitX=-0.141;exitY=0.497;exitDx=0;exitDy=0;exitPerimeter=0;" edge="1" parent="1" source="cjOnqs_CUeYG5httte-h-107">
          <mxGeometry width="50" height="50" relative="1" as="geometry">
            <mxPoint x="1918.98" y="219.98" as="sourcePoint" />
            <mxPoint x="1858.979999999999" y="219.98000000000002" as="targetPoint" />
          </mxGeometry>
        </mxCell>
        <mxCell id="cjOnqs_CUeYG5httte-h-107" value="" style="aspect=fixed;perimeter=ellipsePerimeter;html=1;align=center;shadow=0;dashed=0;spacingTop=3;image;image=img/lib/active_directory/folder.svg;" vertex="1" parent="1">
          <mxGeometry x="1898.98" y="210" width="14.6" height="20" as="geometry" />
        </mxCell>
        <mxCell id="cjOnqs_CUeYG5httte-h-108" value="store.ts (sagaMiddleware)" style="text;html=1;strokeColor=none;fillColor=none;align=center;verticalAlign=middle;whiteSpace=wrap;rounded=0;" vertex="1" parent="1">
          <mxGeometry x="1920.05" y="210" width="158.93" height="20" as="geometry" />
        </mxCell>
        <mxCell id="cjOnqs_CUeYG5httte-h-118" value="" style="shape=partialRectangle;whiteSpace=wrap;html=1;top=0;left=0;fillColor=none;rotation=90;" vertex="1" parent="1">
          <mxGeometry x="1812.18" y="1486.8" width="276.21" height="87.18" as="geometry" />
        </mxCell>
        <mxCell id="cjOnqs_CUeYG5httte-h-119" value="" style="verticalLabelPosition=bottom;html=1;verticalAlign=top;strokeWidth=1;align=center;outlineConnect=0;dashed=0;outlineConnect=0;shape=mxgraph.aws3d.file;aspect=fixed;strokeColor=#292929;" vertex="1" parent="1">
          <mxGeometry x="1997.8799999999999" y="1650" width="13.09" height="30" as="geometry" />
        </mxCell>
        <mxCell id="cjOnqs_CUeYG5httte-h-120" value="rootAction.ts" style="text;html=1;strokeColor=none;fillColor=none;align=center;verticalAlign=middle;whiteSpace=wrap;rounded=0;" vertex="1" parent="1">
          <mxGeometry x="2017.8799999999999" y="1655" width="66.91" height="20" as="geometry" />
        </mxCell>
        <mxCell id="cjOnqs_CUeYG5httte-h-125" value="" style="verticalLabelPosition=bottom;html=1;verticalAlign=top;strokeWidth=1;align=center;outlineConnect=0;dashed=0;outlineConnect=0;shape=mxgraph.aws3d.file;aspect=fixed;strokeColor=#292929;" vertex="1" parent="1">
          <mxGeometry x="1998.87" y="1729.62" width="13.09" height="30" as="geometry" />
        </mxCell>
        <mxCell id="cjOnqs_CUeYG5httte-h-126" value="rootSaga.ts" style="text;html=1;strokeColor=none;fillColor=none;align=center;verticalAlign=middle;whiteSpace=wrap;rounded=0;" vertex="1" parent="1">
          <mxGeometry x="2011.96" y="1734.62" width="81.06" height="20" as="geometry" />
        </mxCell>
        <mxCell id="cjOnqs_CUeYG5httte-h-127" value="" style="shape=partialRectangle;whiteSpace=wrap;html=1;top=0;left=0;fillColor=none;rotation=90;" vertex="1" parent="1">
          <mxGeometry x="1881.95" y="1690.22" width="133.85" height="84.24" as="geometry" />
        </mxCell>
        <mxCell id="cjOnqs_CUeYG5httte-h-128" value="" style="verticalLabelPosition=bottom;html=1;verticalAlign=top;strokeWidth=1;align=center;outlineConnect=0;dashed=0;outlineConnect=0;shape=mxgraph.aws3d.file;aspect=fixed;strokeColor=#292929;" vertex="1" parent="1">
          <mxGeometry x="1998.87" y="1783.37" width="13.09" height="30" as="geometry" />
        </mxCell>
        <mxCell id="cjOnqs_CUeYG5httte-h-129" value="rootReducer.ts" style="text;html=1;strokeColor=none;fillColor=none;align=center;verticalAlign=middle;whiteSpace=wrap;rounded=0;" vertex="1" parent="1">
          <mxGeometry x="2011.96" y="1788.37" width="101.06" height="20" as="geometry" />
        </mxCell>
        <mxCell id="cjOnqs_CUeYG5httte-h-130" value="" style="endArrow=none;html=1;rounded=0;" edge="1" parent="1">
          <mxGeometry width="50" height="50" relative="1" as="geometry">
            <mxPoint x="1858.98" y="220" as="sourcePoint" />
            <mxPoint x="1858.9799999999996" y="175" as="targetPoint" />
          </mxGeometry>
        </mxCell>
        <mxCell id="cjOnqs_CUeYG5httte-h-132" value="" style="shape=partialRectangle;whiteSpace=wrap;html=1;top=0;left=0;fillColor=none;rotation=90;" vertex="1" parent="1">
          <mxGeometry x="1933.65" y="209.89" width="30.44" height="85" as="geometry" />
        </mxCell>
        <mxCell id="cjOnqs_CUeYG5httte-h-135" value="" style="aspect=fixed;perimeter=ellipsePerimeter;html=1;align=center;shadow=0;dashed=0;spacingTop=3;image;image=img/lib/active_directory/folder.svg;" vertex="1" parent="1">
          <mxGeometry x="1997.88" y="260" width="14.6" height="20" as="geometry" />
        </mxCell>
        <mxCell id="cjOnqs_CUeYG5httte-h-137" value="auth" style="text;html=1;strokeColor=none;fillColor=none;align=center;verticalAlign=middle;whiteSpace=wrap;rounded=0;" vertex="1" parent="1">
          <mxGeometry x="2012.48" y="260" width="38.01" height="20" as="geometry" />
        </mxCell>
        <mxCell id="cjOnqs_CUeYG5httte-h-138" value="" style="shape=partialRectangle;whiteSpace=wrap;html=1;top=0;left=0;fillColor=none;rotation=90;" vertex="1" parent="1">
          <mxGeometry x="2035.7099999999998" y="250" width="25" height="85" as="geometry" />
        </mxCell>
        <mxCell id="cjOnqs_CUeYG5httte-h-139" value="" style="verticalLabelPosition=bottom;html=1;verticalAlign=top;strokeWidth=1;align=center;outlineConnect=0;dashed=0;outlineConnect=0;shape=mxgraph.aws3d.file;aspect=fixed;strokeColor=#292929;" vertex="1" parent="1">
          <mxGeometry x="2095.71" y="296.05999999999995" width="13.09" height="30" as="geometry" />
        </mxCell>
        <mxCell id="cjOnqs_CUeYG5httte-h-140" value="action.ts" style="text;html=1;strokeColor=none;fillColor=none;align=center;verticalAlign=middle;whiteSpace=wrap;rounded=0;" vertex="1" parent="1">
          <mxGeometry x="2115.71" y="301.05999999999995" width="66.91" height="20" as="geometry" />
        </mxCell>
        <mxCell id="cjOnqs_CUeYG5httte-h-141" value="" style="shape=partialRectangle;whiteSpace=wrap;html=1;top=0;left=0;fillColor=none;rotation=90;" vertex="1" parent="1">
          <mxGeometry x="2020.9099999999999" y="290" width="54.58" height="85" as="geometry" />
        </mxCell>
        <mxCell id="cjOnqs_CUeYG5httte-h-142" value="" style="verticalLabelPosition=bottom;html=1;verticalAlign=top;strokeWidth=1;align=center;outlineConnect=0;dashed=0;outlineConnect=0;shape=mxgraph.aws3d.file;aspect=fixed;strokeColor=#292929;" vertex="1" parent="1">
          <mxGeometry x="2095.71" y="347.30999999999995" width="13.09" height="30" as="geometry" />
        </mxCell>
        <mxCell id="cjOnqs_CUeYG5httte-h-143" value="saga.ts" style="text;html=1;strokeColor=none;fillColor=none;align=center;verticalAlign=middle;whiteSpace=wrap;rounded=0;" vertex="1" parent="1">
          <mxGeometry x="2108.8" y="352.30999999999995" width="81.06" height="20" as="geometry" />
        </mxCell>
        <mxCell id="cjOnqs_CUeYG5httte-h-144" value="" style="shape=partialRectangle;whiteSpace=wrap;html=1;top=0;left=0;fillColor=none;rotation=90;" vertex="1" parent="1">
          <mxGeometry x="2017.8799999999999" y="347.37" width="60.66" height="85" as="geometry" />
        </mxCell>
        <mxCell id="cjOnqs_CUeYG5httte-h-145" value="" style="verticalLabelPosition=bottom;html=1;verticalAlign=top;strokeWidth=1;align=center;outlineConnect=0;dashed=0;outlineConnect=0;shape=mxgraph.aws3d.file;aspect=fixed;strokeColor=#292929;" vertex="1" parent="1">
          <mxGeometry x="2095.71" y="401.05999999999995" width="13.09" height="30" as="geometry" />
        </mxCell>
        <mxCell id="cjOnqs_CUeYG5httte-h-146" value="reducer.ts" style="text;html=1;strokeColor=none;fillColor=none;align=center;verticalAlign=middle;whiteSpace=wrap;rounded=0;" vertex="1" parent="1">
          <mxGeometry x="2108.8" y="406.05999999999995" width="101.06" height="20" as="geometry" />
        </mxCell>
        <mxCell id="cjOnqs_CUeYG5httte-h-147" value="" style="shape=partialRectangle;whiteSpace=wrap;html=1;top=0;left=0;fillColor=none;rotation=90;" vertex="1" parent="1">
          <mxGeometry x="2017.8799999999999" y="405" width="60.66" height="85" as="geometry" />
        </mxCell>
        <mxCell id="cjOnqs_CUeYG5httte-h-148" value="" style="verticalLabelPosition=bottom;html=1;verticalAlign=top;strokeWidth=1;align=center;outlineConnect=0;dashed=0;outlineConnect=0;shape=mxgraph.aws3d.file;aspect=fixed;strokeColor=#292929;" vertex="1" parent="1">
          <mxGeometry x="2095.71" y="458.68999999999994" width="13.09" height="30" as="geometry" />
        </mxCell>
        <mxCell id="cjOnqs_CUeYG5httte-h-149" value="constants.ts" style="text;html=1;strokeColor=none;fillColor=none;align=center;verticalAlign=middle;whiteSpace=wrap;rounded=0;" vertex="1" parent="1">
          <mxGeometry x="2108.8" y="463.68999999999994" width="101.06" height="20" as="geometry" />
        </mxCell>
        <mxCell id="cjOnqs_CUeYG5httte-h-150" value="" style="shape=partialRectangle;whiteSpace=wrap;html=1;top=0;left=0;fillColor=none;rotation=90;" vertex="1" parent="1">
          <mxGeometry x="1806.31" y="362.67" width="285.11" height="85" as="geometry" />
        </mxCell>
        <mxCell id="cjOnqs_CUeYG5httte-h-151" value="" style="aspect=fixed;perimeter=ellipsePerimeter;html=1;align=center;shadow=0;dashed=0;spacingTop=3;image;image=img/lib/active_directory/folder.svg;" vertex="1" parent="1">
          <mxGeometry x="1997.88" y="540.1099999999999" width="14.6" height="20" as="geometry" />
        </mxCell>
        <mxCell id="cjOnqs_CUeYG5httte-h-152" value="configVersion" style="text;html=1;strokeColor=none;fillColor=none;align=center;verticalAlign=middle;whiteSpace=wrap;rounded=0;" vertex="1" parent="1">
          <mxGeometry x="2012.48" y="540.11" width="96.5" height="20" as="geometry" />
        </mxCell>
        <mxCell id="cjOnqs_CUeYG5httte-h-153" value="" style="shape=partialRectangle;whiteSpace=wrap;html=1;top=0;left=0;fillColor=none;rotation=90;" vertex="1" parent="1">
          <mxGeometry x="2035.7099999999998" y="530.1099999999999" width="25" height="85" as="geometry" />
        </mxCell>
        <mxCell id="cjOnqs_CUeYG5httte-h-154" value="" style="verticalLabelPosition=bottom;html=1;verticalAlign=top;strokeWidth=1;align=center;outlineConnect=0;dashed=0;outlineConnect=0;shape=mxgraph.aws3d.file;aspect=fixed;strokeColor=#292929;" vertex="1" parent="1">
          <mxGeometry x="2095.71" y="576.1699999999998" width="13.09" height="30" as="geometry" />
        </mxCell>
        <mxCell id="cjOnqs_CUeYG5httte-h-155" value="action.ts" style="text;html=1;strokeColor=none;fillColor=none;align=center;verticalAlign=middle;whiteSpace=wrap;rounded=0;" vertex="1" parent="1">
          <mxGeometry x="2115.71" y="581.1699999999998" width="66.91" height="20" as="geometry" />
        </mxCell>
        <mxCell id="cjOnqs_CUeYG5httte-h-156" value="" style="shape=partialRectangle;whiteSpace=wrap;html=1;top=0;left=0;fillColor=none;rotation=90;" vertex="1" parent="1">
          <mxGeometry x="2020.9099999999999" y="570.1099999999999" width="54.58" height="85" as="geometry" />
        </mxCell>
        <mxCell id="cjOnqs_CUeYG5httte-h-157" value="" style="verticalLabelPosition=bottom;html=1;verticalAlign=top;strokeWidth=1;align=center;outlineConnect=0;dashed=0;outlineConnect=0;shape=mxgraph.aws3d.file;aspect=fixed;strokeColor=#292929;" vertex="1" parent="1">
          <mxGeometry x="2095.71" y="627.4199999999998" width="13.09" height="30" as="geometry" />
        </mxCell>
        <mxCell id="cjOnqs_CUeYG5httte-h-158" value="saga.ts" style="text;html=1;strokeColor=none;fillColor=none;align=center;verticalAlign=middle;whiteSpace=wrap;rounded=0;" vertex="1" parent="1">
          <mxGeometry x="2108.8" y="632.4199999999998" width="81.06" height="20" as="geometry" />
        </mxCell>
        <mxCell id="cjOnqs_CUeYG5httte-h-159" value="" style="shape=partialRectangle;whiteSpace=wrap;html=1;top=0;left=0;fillColor=none;rotation=90;" vertex="1" parent="1">
          <mxGeometry x="2017.8799999999999" y="627.48" width="60.66" height="85" as="geometry" />
        </mxCell>
        <mxCell id="cjOnqs_CUeYG5httte-h-160" value="" style="verticalLabelPosition=bottom;html=1;verticalAlign=top;strokeWidth=1;align=center;outlineConnect=0;dashed=0;outlineConnect=0;shape=mxgraph.aws3d.file;aspect=fixed;strokeColor=#292929;" vertex="1" parent="1">
          <mxGeometry x="2095.71" y="681.1699999999998" width="13.09" height="30" as="geometry" />
        </mxCell>
        <mxCell id="cjOnqs_CUeYG5httte-h-161" value="reducer.ts" style="text;html=1;strokeColor=none;fillColor=none;align=center;verticalAlign=middle;whiteSpace=wrap;rounded=0;" vertex="1" parent="1">
          <mxGeometry x="2108.8" y="686.1699999999998" width="101.06" height="20" as="geometry" />
        </mxCell>
        <mxCell id="cjOnqs_CUeYG5httte-h-162" value="" style="shape=partialRectangle;whiteSpace=wrap;html=1;top=0;left=0;fillColor=none;rotation=90;" vertex="1" parent="1">
          <mxGeometry x="2017.8799999999999" y="685.1099999999999" width="60.66" height="85" as="geometry" />
        </mxCell>
        <mxCell id="cjOnqs_CUeYG5httte-h-163" value="" style="verticalLabelPosition=bottom;html=1;verticalAlign=top;strokeWidth=1;align=center;outlineConnect=0;dashed=0;outlineConnect=0;shape=mxgraph.aws3d.file;aspect=fixed;strokeColor=#292929;" vertex="1" parent="1">
          <mxGeometry x="2095.71" y="738.8" width="13.09" height="30" as="geometry" />
        </mxCell>
        <mxCell id="cjOnqs_CUeYG5httte-h-164" value="constants.ts" style="text;html=1;strokeColor=none;fillColor=none;align=center;verticalAlign=middle;whiteSpace=wrap;rounded=0;" vertex="1" parent="1">
          <mxGeometry x="2108.8" y="743.8" width="101.06" height="20" as="geometry" />
        </mxCell>
        <mxCell id="cjOnqs_CUeYG5httte-h-165" value="" style="shape=partialRectangle;whiteSpace=wrap;html=1;top=0;left=0;fillColor=none;rotation=90;" vertex="1" parent="1">
          <mxGeometry x="1806.31" y="647.34" width="285.11" height="85" as="geometry" />
        </mxCell>
        <mxCell id="cjOnqs_CUeYG5httte-h-166" value="" style="aspect=fixed;perimeter=ellipsePerimeter;html=1;align=center;shadow=0;dashed=0;spacingTop=3;image;image=img/lib/active_directory/folder.svg;" vertex="1" parent="1">
          <mxGeometry x="1997.88" y="824.78" width="14.6" height="20" as="geometry" />
        </mxCell>
        <mxCell id="cjOnqs_CUeYG5httte-h-167" value="layout" style="text;html=1;strokeColor=none;fillColor=none;align=center;verticalAlign=middle;whiteSpace=wrap;rounded=0;" vertex="1" parent="1">
          <mxGeometry x="2012.48" y="824.78" width="66.5" height="20" as="geometry" />
        </mxCell>
        <mxCell id="cjOnqs_CUeYG5httte-h-168" value="" style="shape=partialRectangle;whiteSpace=wrap;html=1;top=0;left=0;fillColor=none;rotation=90;" vertex="1" parent="1">
          <mxGeometry x="2035.7099999999998" y="814.78" width="25" height="85" as="geometry" />
        </mxCell>
        <mxCell id="cjOnqs_CUeYG5httte-h-169" value="" style="verticalLabelPosition=bottom;html=1;verticalAlign=top;strokeWidth=1;align=center;outlineConnect=0;dashed=0;outlineConnect=0;shape=mxgraph.aws3d.file;aspect=fixed;strokeColor=#292929;" vertex="1" parent="1">
          <mxGeometry x="2095.71" y="860.8399999999999" width="13.09" height="30" as="geometry" />
        </mxCell>
        <mxCell id="cjOnqs_CUeYG5httte-h-170" value="action.ts" style="text;html=1;strokeColor=none;fillColor=none;align=center;verticalAlign=middle;whiteSpace=wrap;rounded=0;" vertex="1" parent="1">
          <mxGeometry x="2115.71" y="865.8399999999999" width="66.91" height="20" as="geometry" />
        </mxCell>
        <mxCell id="cjOnqs_CUeYG5httte-h-171" value="" style="shape=partialRectangle;whiteSpace=wrap;html=1;top=0;left=0;fillColor=none;rotation=90;" vertex="1" parent="1">
          <mxGeometry x="2020.9099999999999" y="854.78" width="54.58" height="85" as="geometry" />
        </mxCell>
        <mxCell id="cjOnqs_CUeYG5httte-h-172" value="" style="verticalLabelPosition=bottom;html=1;verticalAlign=top;strokeWidth=1;align=center;outlineConnect=0;dashed=0;outlineConnect=0;shape=mxgraph.aws3d.file;aspect=fixed;strokeColor=#292929;" vertex="1" parent="1">
          <mxGeometry x="2095.71" y="912.0899999999999" width="13.09" height="30" as="geometry" />
        </mxCell>
        <mxCell id="cjOnqs_CUeYG5httte-h-173" value="saga.ts" style="text;html=1;strokeColor=none;fillColor=none;align=center;verticalAlign=middle;whiteSpace=wrap;rounded=0;" vertex="1" parent="1">
          <mxGeometry x="2108.8" y="917.0899999999999" width="81.06" height="20" as="geometry" />
        </mxCell>
        <mxCell id="cjOnqs_CUeYG5httte-h-174" value="" style="shape=partialRectangle;whiteSpace=wrap;html=1;top=0;left=0;fillColor=none;rotation=90;" vertex="1" parent="1">
          <mxGeometry x="2017.8799999999999" y="912.1500000000001" width="60.66" height="85" as="geometry" />
        </mxCell>
        <mxCell id="cjOnqs_CUeYG5httte-h-175" value="" style="verticalLabelPosition=bottom;html=1;verticalAlign=top;strokeWidth=1;align=center;outlineConnect=0;dashed=0;outlineConnect=0;shape=mxgraph.aws3d.file;aspect=fixed;strokeColor=#292929;" vertex="1" parent="1">
          <mxGeometry x="2095.71" y="965.8399999999999" width="13.09" height="30" as="geometry" />
        </mxCell>
        <mxCell id="cjOnqs_CUeYG5httte-h-176" value="reducer.ts" style="text;html=1;strokeColor=none;fillColor=none;align=center;verticalAlign=middle;whiteSpace=wrap;rounded=0;" vertex="1" parent="1">
          <mxGeometry x="2108.8" y="970.8399999999999" width="101.06" height="20" as="geometry" />
        </mxCell>
        <mxCell id="cjOnqs_CUeYG5httte-h-177" value="" style="shape=partialRectangle;whiteSpace=wrap;html=1;top=0;left=0;fillColor=none;rotation=90;" vertex="1" parent="1">
          <mxGeometry x="2017.8799999999999" y="969.78" width="60.66" height="85" as="geometry" />
        </mxCell>
        <mxCell id="cjOnqs_CUeYG5httte-h-178" value="" style="verticalLabelPosition=bottom;html=1;verticalAlign=top;strokeWidth=1;align=center;outlineConnect=0;dashed=0;outlineConnect=0;shape=mxgraph.aws3d.file;aspect=fixed;strokeColor=#292929;" vertex="1" parent="1">
          <mxGeometry x="2095.71" y="1023.47" width="13.09" height="30" as="geometry" />
        </mxCell>
        <mxCell id="cjOnqs_CUeYG5httte-h-179" value="constants.ts" style="text;html=1;strokeColor=none;fillColor=none;align=center;verticalAlign=middle;whiteSpace=wrap;rounded=0;" vertex="1" parent="1">
          <mxGeometry x="2108.8" y="1028.47" width="101.06" height="20" as="geometry" />
        </mxCell>
        <mxCell id="cjOnqs_CUeYG5httte-h-180" value="" style="shape=partialRectangle;whiteSpace=wrap;html=1;top=0;left=0;fillColor=none;rotation=90;" vertex="1" parent="1">
          <mxGeometry x="1806.31" y="930" width="285.11" height="85" as="geometry" />
        </mxCell>
        <mxCell id="cjOnqs_CUeYG5httte-h-181" value="" style="aspect=fixed;perimeter=ellipsePerimeter;html=1;align=center;shadow=0;dashed=0;spacingTop=3;image;image=img/lib/active_directory/folder.svg;" vertex="1" parent="1">
          <mxGeometry x="1997.88" y="1107.44" width="14.6" height="20" as="geometry" />
        </mxCell>
        <mxCell id="cjOnqs_CUeYG5httte-h-182" value="warehouse" style="text;html=1;strokeColor=none;fillColor=none;align=center;verticalAlign=middle;whiteSpace=wrap;rounded=0;" vertex="1" parent="1">
          <mxGeometry x="2012.48" y="1107.44" width="96.5" height="20" as="geometry" />
        </mxCell>
        <mxCell id="cjOnqs_CUeYG5httte-h-183" value="" style="shape=partialRectangle;whiteSpace=wrap;html=1;top=0;left=0;fillColor=none;rotation=90;" vertex="1" parent="1">
          <mxGeometry x="2035.7099999999998" y="1097.44" width="25" height="85" as="geometry" />
        </mxCell>
        <mxCell id="cjOnqs_CUeYG5httte-h-184" value="" style="verticalLabelPosition=bottom;html=1;verticalAlign=top;strokeWidth=1;align=center;outlineConnect=0;dashed=0;outlineConnect=0;shape=mxgraph.aws3d.file;aspect=fixed;strokeColor=#292929;" vertex="1" parent="1">
          <mxGeometry x="2095.71" y="1143.5" width="13.09" height="30" as="geometry" />
        </mxCell>
        <mxCell id="cjOnqs_CUeYG5httte-h-185" value="action.ts" style="text;html=1;strokeColor=none;fillColor=none;align=center;verticalAlign=middle;whiteSpace=wrap;rounded=0;" vertex="1" parent="1">
          <mxGeometry x="2115.71" y="1148.5" width="66.91" height="20" as="geometry" />
        </mxCell>
        <mxCell id="cjOnqs_CUeYG5httte-h-186" value="" style="shape=partialRectangle;whiteSpace=wrap;html=1;top=0;left=0;fillColor=none;rotation=90;" vertex="1" parent="1">
          <mxGeometry x="2020.9099999999999" y="1137.44" width="54.58" height="85" as="geometry" />
        </mxCell>
        <mxCell id="cjOnqs_CUeYG5httte-h-187" value="" style="verticalLabelPosition=bottom;html=1;verticalAlign=top;strokeWidth=1;align=center;outlineConnect=0;dashed=0;outlineConnect=0;shape=mxgraph.aws3d.file;aspect=fixed;strokeColor=#292929;" vertex="1" parent="1">
          <mxGeometry x="2095.71" y="1194.75" width="13.09" height="30" as="geometry" />
        </mxCell>
        <mxCell id="cjOnqs_CUeYG5httte-h-188" value="saga.ts" style="text;html=1;strokeColor=none;fillColor=none;align=center;verticalAlign=middle;whiteSpace=wrap;rounded=0;" vertex="1" parent="1">
          <mxGeometry x="2108.8" y="1199.75" width="81.06" height="20" as="geometry" />
        </mxCell>
        <mxCell id="cjOnqs_CUeYG5httte-h-189" value="" style="shape=partialRectangle;whiteSpace=wrap;html=1;top=0;left=0;fillColor=none;rotation=90;" vertex="1" parent="1">
          <mxGeometry x="2017.8799999999999" y="1194.8100000000002" width="60.66" height="85" as="geometry" />
        </mxCell>
        <mxCell id="cjOnqs_CUeYG5httte-h-190" value="" style="verticalLabelPosition=bottom;html=1;verticalAlign=top;strokeWidth=1;align=center;outlineConnect=0;dashed=0;outlineConnect=0;shape=mxgraph.aws3d.file;aspect=fixed;strokeColor=#292929;" vertex="1" parent="1">
          <mxGeometry x="2095.71" y="1248.5" width="13.09" height="30" as="geometry" />
        </mxCell>
        <mxCell id="cjOnqs_CUeYG5httte-h-191" value="reducer.ts" style="text;html=1;strokeColor=none;fillColor=none;align=center;verticalAlign=middle;whiteSpace=wrap;rounded=0;" vertex="1" parent="1">
          <mxGeometry x="2108.8" y="1253.5" width="101.06" height="20" as="geometry" />
        </mxCell>
        <mxCell id="cjOnqs_CUeYG5httte-h-192" value="" style="shape=partialRectangle;whiteSpace=wrap;html=1;top=0;left=0;fillColor=none;rotation=90;" vertex="1" parent="1">
          <mxGeometry x="2017.8799999999999" y="1252.44" width="60.66" height="85" as="geometry" />
        </mxCell>
        <mxCell id="cjOnqs_CUeYG5httte-h-193" value="" style="verticalLabelPosition=bottom;html=1;verticalAlign=top;strokeWidth=1;align=center;outlineConnect=0;dashed=0;outlineConnect=0;shape=mxgraph.aws3d.file;aspect=fixed;strokeColor=#292929;" vertex="1" parent="1">
          <mxGeometry x="2095.71" y="1306.13" width="13.09" height="30" as="geometry" />
        </mxCell>
        <mxCell id="cjOnqs_CUeYG5httte-h-194" value="constants.ts" style="text;html=1;strokeColor=none;fillColor=none;align=center;verticalAlign=middle;whiteSpace=wrap;rounded=0;" vertex="1" parent="1">
          <mxGeometry x="2108.8" y="1311.13" width="101.06" height="20" as="geometry" />
        </mxCell>
        <mxCell id="cjOnqs_CUeYG5httte-h-195" value="" style="shape=partialRectangle;whiteSpace=wrap;html=1;top=0;left=0;fillColor=none;rotation=90;" vertex="1" parent="1">
          <mxGeometry x="1806.31" y="1210" width="285.11" height="85" as="geometry" />
        </mxCell>
        <mxCell id="cjOnqs_CUeYG5httte-h-196" value="" style="aspect=fixed;perimeter=ellipsePerimeter;html=1;align=center;shadow=0;dashed=0;spacingTop=3;image;image=img/lib/active_directory/folder.svg;" vertex="1" parent="1">
          <mxGeometry x="1997.88" y="1387.44" width="14.6" height="20" as="geometry" />
        </mxCell>
        <mxCell id="cjOnqs_CUeYG5httte-h-197" value="warehouse list" style="text;html=1;strokeColor=none;fillColor=none;align=center;verticalAlign=middle;whiteSpace=wrap;rounded=0;" vertex="1" parent="1">
          <mxGeometry x="2012.48" y="1387.44" width="96.5" height="20" as="geometry" />
        </mxCell>
        <mxCell id="cjOnqs_CUeYG5httte-h-198" value="" style="shape=partialRectangle;whiteSpace=wrap;html=1;top=0;left=0;fillColor=none;rotation=90;" vertex="1" parent="1">
          <mxGeometry x="2035.7099999999998" y="1377.44" width="25" height="85" as="geometry" />
        </mxCell>
        <mxCell id="cjOnqs_CUeYG5httte-h-199" value="" style="verticalLabelPosition=bottom;html=1;verticalAlign=top;strokeWidth=1;align=center;outlineConnect=0;dashed=0;outlineConnect=0;shape=mxgraph.aws3d.file;aspect=fixed;strokeColor=#292929;" vertex="1" parent="1">
          <mxGeometry x="2095.71" y="1423.5" width="13.09" height="30" as="geometry" />
        </mxCell>
        <mxCell id="cjOnqs_CUeYG5httte-h-200" value="action.ts" style="text;html=1;strokeColor=none;fillColor=none;align=center;verticalAlign=middle;whiteSpace=wrap;rounded=0;" vertex="1" parent="1">
          <mxGeometry x="2115.71" y="1428.5" width="66.91" height="20" as="geometry" />
        </mxCell>
        <mxCell id="cjOnqs_CUeYG5httte-h-201" value="" style="shape=partialRectangle;whiteSpace=wrap;html=1;top=0;left=0;fillColor=none;rotation=90;" vertex="1" parent="1">
          <mxGeometry x="2020.9099999999999" y="1417.44" width="54.58" height="85" as="geometry" />
        </mxCell>
        <mxCell id="cjOnqs_CUeYG5httte-h-202" value="" style="verticalLabelPosition=bottom;html=1;verticalAlign=top;strokeWidth=1;align=center;outlineConnect=0;dashed=0;outlineConnect=0;shape=mxgraph.aws3d.file;aspect=fixed;strokeColor=#292929;" vertex="1" parent="1">
          <mxGeometry x="2095.71" y="1474.75" width="13.09" height="30" as="geometry" />
        </mxCell>
        <mxCell id="cjOnqs_CUeYG5httte-h-203" value="saga.ts" style="text;html=1;strokeColor=none;fillColor=none;align=center;verticalAlign=middle;whiteSpace=wrap;rounded=0;" vertex="1" parent="1">
          <mxGeometry x="2108.8" y="1479.75" width="81.06" height="20" as="geometry" />
        </mxCell>
        <mxCell id="cjOnqs_CUeYG5httte-h-204" value="" style="shape=partialRectangle;whiteSpace=wrap;html=1;top=0;left=0;fillColor=none;rotation=90;" vertex="1" parent="1">
          <mxGeometry x="2017.8799999999999" y="1474.81" width="60.66" height="85" as="geometry" />
        </mxCell>
        <mxCell id="cjOnqs_CUeYG5httte-h-205" value="" style="verticalLabelPosition=bottom;html=1;verticalAlign=top;strokeWidth=1;align=center;outlineConnect=0;dashed=0;outlineConnect=0;shape=mxgraph.aws3d.file;aspect=fixed;strokeColor=#292929;" vertex="1" parent="1">
          <mxGeometry x="2095.71" y="1528.5" width="13.09" height="30" as="geometry" />
        </mxCell>
        <mxCell id="cjOnqs_CUeYG5httte-h-206" value="reducer.ts" style="text;html=1;strokeColor=none;fillColor=none;align=center;verticalAlign=middle;whiteSpace=wrap;rounded=0;" vertex="1" parent="1">
          <mxGeometry x="2108.8" y="1533.5" width="101.06" height="20" as="geometry" />
        </mxCell>
        <mxCell id="cjOnqs_CUeYG5httte-h-207" value="" style="shape=partialRectangle;whiteSpace=wrap;html=1;top=0;left=0;fillColor=none;rotation=90;" vertex="1" parent="1">
          <mxGeometry x="2017.8799999999999" y="1532.44" width="60.66" height="85" as="geometry" />
        </mxCell>
        <mxCell id="cjOnqs_CUeYG5httte-h-208" value="" style="verticalLabelPosition=bottom;html=1;verticalAlign=top;strokeWidth=1;align=center;outlineConnect=0;dashed=0;outlineConnect=0;shape=mxgraph.aws3d.file;aspect=fixed;strokeColor=#292929;" vertex="1" parent="1">
          <mxGeometry x="2095.71" y="1586.13" width="13.09" height="30" as="geometry" />
        </mxCell>
        <mxCell id="cjOnqs_CUeYG5httte-h-209" value="constants.ts" style="text;html=1;strokeColor=none;fillColor=none;align=center;verticalAlign=middle;whiteSpace=wrap;rounded=0;" vertex="1" parent="1">
          <mxGeometry x="2108.8" y="1591.13" width="101.06" height="20" as="geometry" />
        </mxCell>
        <mxCell id="cjOnqs_CUeYG5httte-h-212" value="" style="endArrow=none;html=1;rounded=0;exitX=0.588;exitY=0.99;exitDx=0;exitDy=0;exitPerimeter=0;" edge="1" parent="1" source="cjOnqs_CUeYG5httte-h-127">
          <mxGeometry width="50" height="50" relative="1" as="geometry">
            <mxPoint x="1888.98" y="1744.51" as="sourcePoint" />
            <mxPoint x="1988.98" y="1744.51" as="targetPoint" />
          </mxGeometry>
        </mxCell>
        <mxCell id="cjOnqs_CUeYG5httte-h-213" value="" style="endArrow=none;html=1;rounded=0;exitX=-0.141;exitY=0.497;exitDx=0;exitDy=0;exitPerimeter=0;" edge="1" parent="1" source="cjOnqs_CUeYG5httte-h-214">
          <mxGeometry width="50" height="50" relative="1" as="geometry">
            <mxPoint x="1566.31" y="219.98" as="sourcePoint" />
            <mxPoint x="1506.309999999999" y="219.98000000000002" as="targetPoint" />
          </mxGeometry>
        </mxCell>
        <mxCell id="cjOnqs_CUeYG5httte-h-214" value="" style="aspect=fixed;perimeter=ellipsePerimeter;html=1;align=center;shadow=0;dashed=0;spacingTop=3;image;image=img/lib/active_directory/folder.svg;" vertex="1" parent="1">
          <mxGeometry x="1546.31" y="210" width="14.6" height="20" as="geometry" />
        </mxCell>
        <mxCell id="cjOnqs_CUeYG5httte-h-215" value="Accordions" style="text;html=1;strokeColor=none;fillColor=none;align=center;verticalAlign=middle;whiteSpace=wrap;rounded=0;" vertex="1" parent="1">
          <mxGeometry x="1567.38" y="210" width="78.93" height="20" as="geometry" />
        </mxCell>
        <mxCell id="cjOnqs_CUeYG5httte-h-216" value="" style="endArrow=none;html=1;rounded=0;" edge="1" parent="1">
          <mxGeometry width="50" height="50" relative="1" as="geometry">
            <mxPoint x="1506.31" y="219.9999999999999" as="sourcePoint" />
            <mxPoint x="1506.3099999999995" y="175" as="targetPoint" />
          </mxGeometry>
        </mxCell>
        <mxCell id="cjOnqs_CUeYG5httte-h-219" value="" style="shape=partialRectangle;whiteSpace=wrap;html=1;top=0;left=0;fillColor=none;rotation=90;" vertex="1" parent="1">
          <mxGeometry x="1576.96" y="208.95" width="35.4" height="85" as="geometry" />
        </mxCell>
        <mxCell id="cjOnqs_CUeYG5httte-h-220" value="" style="verticalLabelPosition=bottom;html=1;verticalAlign=top;strokeWidth=1;align=center;outlineConnect=0;dashed=0;outlineConnect=0;shape=mxgraph.aws3d.file;aspect=fixed;strokeColor=#292929;" vertex="1" parent="1">
          <mxGeometry x="1646.31" y="255" width="13.09" height="30" as="geometry" />
        </mxCell>
        <mxCell id="cjOnqs_CUeYG5httte-h-221" value="Accordions.tsx" style="text;html=1;strokeColor=none;fillColor=none;align=center;verticalAlign=middle;whiteSpace=wrap;rounded=0;" vertex="1" parent="1">
          <mxGeometry x="1659.4" y="260" width="96.91" height="20" as="geometry" />
        </mxCell>
        <mxCell id="cjOnqs_CUeYG5httte-h-222" value="" style="shape=partialRectangle;whiteSpace=wrap;html=1;top=0;left=0;fillColor=none;rotation=90;" vertex="1" parent="1">
          <mxGeometry x="1576.96" y="245" width="35.4" height="85" as="geometry" />
        </mxCell>
        <mxCell id="cjOnqs_CUeYG5httte-h-224" value="Accordions.test.tsx" style="text;html=1;strokeColor=none;fillColor=none;align=center;verticalAlign=middle;whiteSpace=wrap;rounded=0;" vertex="1" parent="1">
          <mxGeometry x="1659.4" y="296.05" width="116.91" height="20" as="geometry" />
        </mxCell>
        <mxCell id="cjOnqs_CUeYG5httte-h-225" value="" style="aspect=fixed;html=1;points=[];align=center;image;fontSize=12;image=img/lib/azure2/general/File.svg;" vertex="1" parent="1">
          <mxGeometry x="1644.84" y="296.06" width="14.56" height="17.94" as="geometry" />
        </mxCell>
        <mxCell id="cjOnqs_CUeYG5httte-h-226" value="" style="endArrow=none;html=1;rounded=0;exitX=-0.141;exitY=0.497;exitDx=0;exitDy=0;exitPerimeter=0;" edge="1" parent="1" source="cjOnqs_CUeYG5httte-h-227">
          <mxGeometry width="50" height="50" relative="1" as="geometry">
            <mxPoint x="1566.31" y="344.98" as="sourcePoint" />
            <mxPoint x="1506.309999999999" y="344.98" as="targetPoint" />
          </mxGeometry>
        </mxCell>
        <mxCell id="cjOnqs_CUeYG5httte-h-227" value="" style="aspect=fixed;perimeter=ellipsePerimeter;html=1;align=center;shadow=0;dashed=0;spacingTop=3;image;image=img/lib/active_directory/folder.svg;" vertex="1" parent="1">
          <mxGeometry x="1546.31" y="335" width="14.6" height="20" as="geometry" />
        </mxCell>
        <mxCell id="cjOnqs_CUeYG5httte-h-228" value="Form" style="text;html=1;strokeColor=none;fillColor=none;align=center;verticalAlign=middle;whiteSpace=wrap;rounded=0;" vertex="1" parent="1">
          <mxGeometry x="1560.9099999999999" y="335" width="45.4" height="20" as="geometry" />
        </mxCell>
        <mxCell id="cjOnqs_CUeYG5httte-h-229" value="" style="endArrow=none;html=1;rounded=0;" edge="1" parent="1">
          <mxGeometry width="50" height="50" relative="1" as="geometry">
            <mxPoint x="1506.31" y="1020" as="sourcePoint" />
            <mxPoint x="1506.31" y="220" as="targetPoint" />
          </mxGeometry>
        </mxCell>
        <mxCell id="cjOnqs_CUeYG5httte-h-230" value="" style="shape=partialRectangle;whiteSpace=wrap;html=1;top=0;left=0;fillColor=none;rotation=90;" vertex="1" parent="1">
          <mxGeometry x="1576.96" y="333.95" width="35.4" height="85" as="geometry" />
        </mxCell>
        <mxCell id="cjOnqs_CUeYG5httte-h-231" value="" style="verticalLabelPosition=bottom;html=1;verticalAlign=top;strokeWidth=1;align=center;outlineConnect=0;dashed=0;outlineConnect=0;shape=mxgraph.aws3d.file;aspect=fixed;strokeColor=#292929;" vertex="1" parent="1">
          <mxGeometry x="1646.31" y="380" width="13.09" height="30" as="geometry" />
        </mxCell>
        <mxCell id="cjOnqs_CUeYG5httte-h-232" value="FormInput.tsx" style="text;html=1;strokeColor=none;fillColor=none;align=center;verticalAlign=middle;whiteSpace=wrap;rounded=0;" vertex="1" parent="1">
          <mxGeometry x="1659.4" y="385" width="96.91" height="20" as="geometry" />
        </mxCell>
        <mxCell id="cjOnqs_CUeYG5httte-h-233" value="" style="shape=partialRectangle;whiteSpace=wrap;html=1;top=0;left=0;fillColor=none;rotation=90;" vertex="1" parent="1">
          <mxGeometry x="1576.96" y="370" width="35.4" height="85" as="geometry" />
        </mxCell>
        <mxCell id="cjOnqs_CUeYG5httte-h-234" value="FormInput.test.tsx" style="text;html=1;strokeColor=none;fillColor=none;align=center;verticalAlign=middle;whiteSpace=wrap;rounded=0;" vertex="1" parent="1">
          <mxGeometry x="1659.4" y="421.05" width="116.91" height="20" as="geometry" />
        </mxCell>
        <mxCell id="cjOnqs_CUeYG5httte-h-235" value="" style="aspect=fixed;html=1;points=[];align=center;image;fontSize=12;image=img/lib/azure2/general/File.svg;" vertex="1" parent="1">
          <mxGeometry x="1644.84" y="421.06" width="14.56" height="17.94" as="geometry" />
        </mxCell>
        <mxCell id="cjOnqs_CUeYG5httte-h-236" value="" style="shape=partialRectangle;whiteSpace=wrap;html=1;top=0;left=0;fillColor=none;rotation=90;" vertex="1" parent="1">
          <mxGeometry x="1576.96" y="403.95" width="35.4" height="85" as="geometry" />
        </mxCell>
        <mxCell id="cjOnqs_CUeYG5httte-h-237" value="" style="verticalLabelPosition=bottom;html=1;verticalAlign=top;strokeWidth=1;align=center;outlineConnect=0;dashed=0;outlineConnect=0;shape=mxgraph.aws3d.file;aspect=fixed;strokeColor=#292929;" vertex="1" parent="1">
          <mxGeometry x="1646.31" y="450" width="13.09" height="30" as="geometry" />
        </mxCell>
        <mxCell id="cjOnqs_CUeYG5httte-h-238" value="HorizontalForm.tsx" style="text;html=1;strokeColor=none;fillColor=none;align=center;verticalAlign=middle;whiteSpace=wrap;rounded=0;" vertex="1" parent="1">
          <mxGeometry x="1659.4" y="455" width="126.91" height="20" as="geometry" />
        </mxCell>
        <mxCell id="cjOnqs_CUeYG5httte-h-239" value="" style="shape=partialRectangle;whiteSpace=wrap;html=1;top=0;left=0;fillColor=none;rotation=90;" vertex="1" parent="1">
          <mxGeometry x="1576.96" y="440" width="35.4" height="85" as="geometry" />
        </mxCell>
        <mxCell id="cjOnqs_CUeYG5httte-h-240" value="HorizontalForm.test.tsx" style="text;html=1;strokeColor=none;fillColor=none;align=center;verticalAlign=middle;whiteSpace=wrap;rounded=0;" vertex="1" parent="1">
          <mxGeometry x="1669.4" y="491.05" width="146.91" height="20" as="geometry" />
        </mxCell>
        <mxCell id="cjOnqs_CUeYG5httte-h-241" value="" style="aspect=fixed;html=1;points=[];align=center;image;fontSize=12;image=img/lib/azure2/general/File.svg;" vertex="1" parent="1">
          <mxGeometry x="1644.84" y="491.06" width="14.56" height="17.94" as="geometry" />
        </mxCell>
        <mxCell id="cjOnqs_CUeYG5httte-h-242" value="" style="shape=partialRectangle;whiteSpace=wrap;html=1;top=0;left=0;fillColor=none;rotation=90;" vertex="1" parent="1">
          <mxGeometry x="1576.96" y="475" width="35.4" height="85" as="geometry" />
        </mxCell>
        <mxCell id="cjOnqs_CUeYG5httte-h-243" value="" style="verticalLabelPosition=bottom;html=1;verticalAlign=top;strokeWidth=1;align=center;outlineConnect=0;dashed=0;outlineConnect=0;shape=mxgraph.aws3d.file;aspect=fixed;strokeColor=#292929;" vertex="1" parent="1">
          <mxGeometry x="1646.31" y="521.05" width="13.09" height="30" as="geometry" />
        </mxCell>
        <mxCell id="cjOnqs_CUeYG5httte-h-244" value="VerticalForm.tsx" style="text;html=1;strokeColor=none;fillColor=none;align=center;verticalAlign=middle;whiteSpace=wrap;rounded=0;" vertex="1" parent="1">
          <mxGeometry x="1659.4" y="526.05" width="106.91" height="20" as="geometry" />
        </mxCell>
        <mxCell id="cjOnqs_CUeYG5httte-h-245" value="" style="shape=partialRectangle;whiteSpace=wrap;html=1;top=0;left=0;fillColor=none;rotation=90;" vertex="1" parent="1">
          <mxGeometry x="1576.96" y="511.05" width="35.4" height="85" as="geometry" />
        </mxCell>
        <mxCell id="cjOnqs_CUeYG5httte-h-246" value="VerticalForm.test.tsx" style="text;html=1;strokeColor=none;fillColor=none;align=center;verticalAlign=middle;whiteSpace=wrap;rounded=0;" vertex="1" parent="1">
          <mxGeometry x="1659.4" y="562.1" width="126.91" height="20" as="geometry" />
        </mxCell>
        <mxCell id="cjOnqs_CUeYG5httte-h-247" value="" style="aspect=fixed;html=1;points=[];align=center;image;fontSize=12;image=img/lib/azure2/general/File.svg;" vertex="1" parent="1">
          <mxGeometry x="1644.84" y="562.11" width="14.56" height="17.94" as="geometry" />
        </mxCell>
        <mxCell id="cjOnqs_CUeYG5httte-h-248" value="" style="endArrow=none;html=1;rounded=0;" edge="1" parent="1">
          <mxGeometry width="50" height="50" relative="1" as="geometry">
            <mxPoint x="1544.31" y="610" as="sourcePoint" />
            <mxPoint x="1506.31" y="610" as="targetPoint" />
            <Array as="points">
              <mxPoint x="1516.31" y="610" />
            </Array>
          </mxGeometry>
        </mxCell>
        <mxCell id="cjOnqs_CUeYG5httte-h-249" value="" style="aspect=fixed;perimeter=ellipsePerimeter;html=1;align=center;shadow=0;dashed=0;spacingTop=3;image;image=img/lib/active_directory/folder.svg;" vertex="1" parent="1">
          <mxGeometry x="1546.31" y="601.17" width="14.6" height="20" as="geometry" />
        </mxCell>
        <mxCell id="cjOnqs_CUeYG5httte-h-250" value="Pagination" style="text;html=1;strokeColor=none;fillColor=none;align=center;verticalAlign=middle;whiteSpace=wrap;rounded=0;" vertex="1" parent="1">
          <mxGeometry x="1560.9099999999999" y="601.17" width="75.4" height="20" as="geometry" />
        </mxCell>
        <mxCell id="cjOnqs_CUeYG5httte-h-251" value="" style="shape=partialRectangle;whiteSpace=wrap;html=1;top=0;left=0;fillColor=none;rotation=90;" vertex="1" parent="1">
          <mxGeometry x="1576.96" y="603.74" width="35.4" height="85" as="geometry" />
        </mxCell>
        <mxCell id="cjOnqs_CUeYG5httte-h-252" value="" style="verticalLabelPosition=bottom;html=1;verticalAlign=top;strokeWidth=1;align=center;outlineConnect=0;dashed=0;outlineConnect=0;shape=mxgraph.aws3d.file;aspect=fixed;strokeColor=#292929;" vertex="1" parent="1">
          <mxGeometry x="1646.31" y="649.79" width="13.09" height="30" as="geometry" />
        </mxCell>
        <mxCell id="cjOnqs_CUeYG5httte-h-253" value="Pagination.tsx" style="text;html=1;strokeColor=none;fillColor=none;align=center;verticalAlign=middle;whiteSpace=wrap;rounded=0;" vertex="1" parent="1">
          <mxGeometry x="1659.4" y="654.79" width="96.91" height="20" as="geometry" />
        </mxCell>
        <mxCell id="cjOnqs_CUeYG5httte-h-254" value="" style="shape=partialRectangle;whiteSpace=wrap;html=1;top=0;left=0;fillColor=none;rotation=90;" vertex="1" parent="1">
          <mxGeometry x="1576.96" y="639.79" width="35.4" height="85" as="geometry" />
        </mxCell>
        <mxCell id="cjOnqs_CUeYG5httte-h-255" value="Pagination.test.tsx" style="text;html=1;strokeColor=none;fillColor=none;align=center;verticalAlign=middle;whiteSpace=wrap;rounded=0;" vertex="1" parent="1">
          <mxGeometry x="1659.4" y="690.84" width="116.91" height="20" as="geometry" />
        </mxCell>
        <mxCell id="cjOnqs_CUeYG5httte-h-256" value="" style="aspect=fixed;html=1;points=[];align=center;image;fontSize=12;image=img/lib/azure2/general/File.svg;" vertex="1" parent="1">
          <mxGeometry x="1644.84" y="690.85" width="14.56" height="17.94" as="geometry" />
        </mxCell>
        <mxCell id="cjOnqs_CUeYG5httte-h-270" value="" style="endArrow=none;html=1;rounded=0;" edge="1" parent="1">
          <mxGeometry width="50" height="50" relative="1" as="geometry">
            <mxPoint x="1544.31" y="741.17" as="sourcePoint" />
            <mxPoint x="1506.31" y="741.17" as="targetPoint" />
            <Array as="points">
              <mxPoint x="1516.31" y="741.17" />
            </Array>
          </mxGeometry>
        </mxCell>
        <mxCell id="cjOnqs_CUeYG5httte-h-271" value="" style="aspect=fixed;perimeter=ellipsePerimeter;html=1;align=center;shadow=0;dashed=0;spacingTop=3;image;image=img/lib/active_directory/folder.svg;" vertex="1" parent="1">
          <mxGeometry x="1546.31" y="732.3399999999999" width="14.6" height="20" as="geometry" />
        </mxCell>
        <mxCell id="cjOnqs_CUeYG5httte-h-272" value="Table" style="text;html=1;strokeColor=none;fillColor=none;align=center;verticalAlign=middle;whiteSpace=wrap;rounded=0;" vertex="1" parent="1">
          <mxGeometry x="1560.9099999999999" y="732.3399999999999" width="75.4" height="20" as="geometry" />
        </mxCell>
        <mxCell id="cjOnqs_CUeYG5httte-h-273" value="" style="shape=partialRectangle;whiteSpace=wrap;html=1;top=0;left=0;fillColor=none;rotation=90;" vertex="1" parent="1">
          <mxGeometry x="1576.96" y="734.91" width="35.4" height="85" as="geometry" />
        </mxCell>
        <mxCell id="cjOnqs_CUeYG5httte-h-274" value="" style="verticalLabelPosition=bottom;html=1;verticalAlign=top;strokeWidth=1;align=center;outlineConnect=0;dashed=0;outlineConnect=0;shape=mxgraph.aws3d.file;aspect=fixed;strokeColor=#292929;" vertex="1" parent="1">
          <mxGeometry x="1646.31" y="780.9599999999999" width="13.09" height="30" as="geometry" />
        </mxCell>
        <mxCell id="cjOnqs_CUeYG5httte-h-275" value="Table.tsx" style="text;html=1;strokeColor=none;fillColor=none;align=center;verticalAlign=middle;whiteSpace=wrap;rounded=0;" vertex="1" parent="1">
          <mxGeometry x="1659.4" y="785.96" width="66.91" height="20" as="geometry" />
        </mxCell>
        <mxCell id="cjOnqs_CUeYG5httte-h-276" value="" style="shape=partialRectangle;whiteSpace=wrap;html=1;top=0;left=0;fillColor=none;rotation=90;" vertex="1" parent="1">
          <mxGeometry x="1576.96" y="770.9599999999999" width="35.4" height="85" as="geometry" />
        </mxCell>
        <mxCell id="cjOnqs_CUeYG5httte-h-277" value="Table.test.tsx" style="text;html=1;strokeColor=none;fillColor=none;align=center;verticalAlign=middle;whiteSpace=wrap;rounded=0;" vertex="1" parent="1">
          <mxGeometry x="1659.4" y="822.01" width="86.91" height="20" as="geometry" />
        </mxCell>
        <mxCell id="cjOnqs_CUeYG5httte-h-278" value="" style="aspect=fixed;html=1;points=[];align=center;image;fontSize=12;image=img/lib/azure2/general/File.svg;" vertex="1" parent="1">
          <mxGeometry x="1644.84" y="822.02" width="14.56" height="17.94" as="geometry" />
        </mxCell>
        <mxCell id="cjOnqs_CUeYG5httte-h-280" value="" style="endArrow=none;html=1;rounded=0;" edge="1" parent="1">
          <mxGeometry width="50" height="50" relative="1" as="geometry">
            <mxPoint x="1544.31" y="880" as="sourcePoint" />
            <mxPoint x="1506.31" y="880" as="targetPoint" />
            <Array as="points">
              <mxPoint x="1516.31" y="880" />
            </Array>
          </mxGeometry>
        </mxCell>
        <mxCell id="cjOnqs_CUeYG5httte-h-281" value="" style="aspect=fixed;perimeter=ellipsePerimeter;html=1;align=center;shadow=0;dashed=0;spacingTop=3;image;image=img/lib/active_directory/folder.svg;" vertex="1" parent="1">
          <mxGeometry x="1546.31" y="873.53" width="14.6" height="20" as="geometry" />
        </mxCell>
        <mxCell id="cjOnqs_CUeYG5httte-h-282" value="Card" style="text;html=1;strokeColor=none;fillColor=none;align=center;verticalAlign=middle;whiteSpace=wrap;rounded=0;" vertex="1" parent="1">
          <mxGeometry x="1560.9099999999999" y="873.53" width="45.4" height="20" as="geometry" />
        </mxCell>
        <mxCell id="cjOnqs_CUeYG5httte-h-283" value="" style="shape=partialRectangle;whiteSpace=wrap;html=1;top=0;left=0;fillColor=none;rotation=90;" vertex="1" parent="1">
          <mxGeometry x="1576.96" y="876.0999999999999" width="35.4" height="85" as="geometry" />
        </mxCell>
        <mxCell id="cjOnqs_CUeYG5httte-h-284" value="" style="verticalLabelPosition=bottom;html=1;verticalAlign=top;strokeWidth=1;align=center;outlineConnect=0;dashed=0;outlineConnect=0;shape=mxgraph.aws3d.file;aspect=fixed;strokeColor=#292929;" vertex="1" parent="1">
          <mxGeometry x="1646.31" y="922.1499999999999" width="13.09" height="30" as="geometry" />
        </mxCell>
        <mxCell id="cjOnqs_CUeYG5httte-h-285" value="Card.tsx" style="text;html=1;strokeColor=none;fillColor=none;align=center;verticalAlign=middle;whiteSpace=wrap;rounded=0;" vertex="1" parent="1">
          <mxGeometry x="1659.4" y="927.1500000000001" width="66.91" height="20" as="geometry" />
        </mxCell>
        <mxCell id="cjOnqs_CUeYG5httte-h-286" value="" style="shape=partialRectangle;whiteSpace=wrap;html=1;top=0;left=0;fillColor=none;rotation=90;" vertex="1" parent="1">
          <mxGeometry x="1576.96" y="912.1499999999999" width="35.4" height="85" as="geometry" />
        </mxCell>
        <mxCell id="cjOnqs_CUeYG5httte-h-287" value="Card.test.tsx" style="text;html=1;strokeColor=none;fillColor=none;align=center;verticalAlign=middle;whiteSpace=wrap;rounded=0;" vertex="1" parent="1">
          <mxGeometry x="1659.4" y="963.2" width="86.91" height="20" as="geometry" />
        </mxCell>
        <mxCell id="cjOnqs_CUeYG5httte-h-288" value="" style="aspect=fixed;html=1;points=[];align=center;image;fontSize=12;image=img/lib/azure2/general/File.svg;" vertex="1" parent="1">
          <mxGeometry x="1644.84" y="963.21" width="14.56" height="17.94" as="geometry" />
        </mxCell>
        <mxCell id="cjOnqs_CUeYG5httte-h-289" value="" style="endArrow=none;html=1;rounded=0;" edge="1" parent="1">
          <mxGeometry width="50" height="50" relative="1" as="geometry">
            <mxPoint x="1544.31" y="1020.29" as="sourcePoint" />
            <mxPoint x="1506.31" y="1020.29" as="targetPoint" />
            <Array as="points">
              <mxPoint x="1516.31" y="1020.29" />
            </Array>
          </mxGeometry>
        </mxCell>
        <mxCell id="cjOnqs_CUeYG5httte-h-290" value="" style="aspect=fixed;perimeter=ellipsePerimeter;html=1;align=center;shadow=0;dashed=0;spacingTop=3;image;image=img/lib/active_directory/folder.svg;" vertex="1" parent="1">
          <mxGeometry x="1546.31" y="1013.8199999999999" width="14.6" height="20" as="geometry" />
        </mxCell>
        <mxCell id="cjOnqs_CUeYG5httte-h-291" value="Toasty" style="text;html=1;strokeColor=none;fillColor=none;align=center;verticalAlign=middle;whiteSpace=wrap;rounded=0;" vertex="1" parent="1">
          <mxGeometry x="1560.9099999999999" y="1013.8199999999999" width="45.4" height="20" as="geometry" />
        </mxCell>
        <mxCell id="cjOnqs_CUeYG5httte-h-292" value="" style="shape=partialRectangle;whiteSpace=wrap;html=1;top=0;left=0;fillColor=none;rotation=90;" vertex="1" parent="1">
          <mxGeometry x="1576.96" y="1016.3899999999999" width="35.4" height="85" as="geometry" />
        </mxCell>
        <mxCell id="cjOnqs_CUeYG5httte-h-293" value="" style="verticalLabelPosition=bottom;html=1;verticalAlign=top;strokeWidth=1;align=center;outlineConnect=0;dashed=0;outlineConnect=0;shape=mxgraph.aws3d.file;aspect=fixed;strokeColor=#292929;" vertex="1" parent="1">
          <mxGeometry x="1646.31" y="1062.4399999999998" width="13.09" height="30" as="geometry" />
        </mxCell>
        <mxCell id="cjOnqs_CUeYG5httte-h-294" value="Toasty.tsx" style="text;html=1;strokeColor=none;fillColor=none;align=center;verticalAlign=middle;whiteSpace=wrap;rounded=0;" vertex="1" parent="1">
          <mxGeometry x="1659.4" y="1067.44" width="66.91" height="20" as="geometry" />
        </mxCell>
        <mxCell id="cjOnqs_CUeYG5httte-h-295" value="" style="shape=partialRectangle;whiteSpace=wrap;html=1;top=0;left=0;fillColor=none;rotation=90;" vertex="1" parent="1">
          <mxGeometry x="1576.96" y="1052.4399999999998" width="35.4" height="85" as="geometry" />
        </mxCell>
        <mxCell id="cjOnqs_CUeYG5httte-h-296" value="Toasty.test.tsx" style="text;html=1;strokeColor=none;fillColor=none;align=center;verticalAlign=middle;whiteSpace=wrap;rounded=0;" vertex="1" parent="1">
          <mxGeometry x="1659.4" y="1103.49" width="86.91" height="20" as="geometry" />
        </mxCell>
        <mxCell id="cjOnqs_CUeYG5httte-h-297" value="" style="aspect=fixed;html=1;points=[];align=center;image;fontSize=12;image=img/lib/azure2/general/File.svg;" vertex="1" parent="1">
          <mxGeometry x="1644.84" y="1103.5" width="14.56" height="17.94" as="geometry" />
        </mxCell>
        <mxCell id="cjOnqs_CUeYG5httte-h-298" value="" style="endArrow=none;html=1;rounded=0;exitX=-0.141;exitY=0.497;exitDx=0;exitDy=0;exitPerimeter=0;" edge="1" parent="1" source="cjOnqs_CUeYG5httte-h-299">
          <mxGeometry width="50" height="50" relative="1" as="geometry">
            <mxPoint x="1156.31" y="219.98" as="sourcePoint" />
            <mxPoint x="1096.309999999999" y="219.9799999999999" as="targetPoint" />
          </mxGeometry>
        </mxCell>
        <mxCell id="cjOnqs_CUeYG5httte-h-299" value="" style="aspect=fixed;perimeter=ellipsePerimeter;html=1;align=center;shadow=0;dashed=0;spacingTop=3;image;image=img/lib/active_directory/folder.svg;" vertex="1" parent="1">
          <mxGeometry x="1136.31" y="210" width="14.6" height="20" as="geometry" />
        </mxCell>
        <mxCell id="cjOnqs_CUeYG5httte-h-300" value="Home" style="text;html=1;strokeColor=none;fillColor=none;align=center;verticalAlign=middle;whiteSpace=wrap;rounded=0;" vertex="1" parent="1">
          <mxGeometry x="1157.38" y="210" width="48.93" height="20" as="geometry" />
        </mxCell>
        <mxCell id="cjOnqs_CUeYG5httte-h-301" value="" style="endArrow=none;html=1;rounded=0;" edge="1" parent="1">
          <mxGeometry width="50" height="50" relative="1" as="geometry">
            <mxPoint x="1096.31" y="219.99999999999977" as="sourcePoint" />
            <mxPoint x="1096.3099999999995" y="175" as="targetPoint" />
          </mxGeometry>
        </mxCell>
        <mxCell id="cjOnqs_CUeYG5httte-h-303" value="" style="endArrow=none;html=1;rounded=0;exitX=-0.141;exitY=0.497;exitDx=0;exitDy=0;exitPerimeter=0;" edge="1" parent="1" source="cjOnqs_CUeYG5httte-h-304">
          <mxGeometry width="50" height="50" relative="1" as="geometry">
            <mxPoint x="1156.31" y="267.48" as="sourcePoint" />
            <mxPoint x="1096.309999999999" y="267.48" as="targetPoint" />
          </mxGeometry>
        </mxCell>
        <mxCell id="cjOnqs_CUeYG5httte-h-304" value="" style="aspect=fixed;perimeter=ellipsePerimeter;html=1;align=center;shadow=0;dashed=0;spacingTop=3;image;image=img/lib/active_directory/folder.svg;" vertex="1" parent="1">
          <mxGeometry x="1136.31" y="257.5" width="14.6" height="20" as="geometry" />
        </mxCell>
        <mxCell id="cjOnqs_CUeYG5httte-h-305" value="account/Login" style="text;html=1;strokeColor=none;fillColor=none;align=center;verticalAlign=middle;whiteSpace=wrap;rounded=0;" vertex="1" parent="1">
          <mxGeometry x="1157.38" y="257.5" width="78.93" height="20" as="geometry" />
        </mxCell>
        <mxCell id="cjOnqs_CUeYG5httte-h-306" value="" style="endArrow=none;html=1;rounded=0;" edge="1" parent="1">
          <mxGeometry width="50" height="50" relative="1" as="geometry">
            <mxPoint x="1096.31" y="1150" as="sourcePoint" />
            <mxPoint x="1096.31" y="220" as="targetPoint" />
          </mxGeometry>
        </mxCell>
        <mxCell id="cjOnqs_CUeYG5httte-h-307" value="" style="endArrow=none;html=1;rounded=0;" edge="1" parent="1">
          <mxGeometry width="50" height="50" relative="1" as="geometry">
            <mxPoint x="1134.31" y="322.5" as="sourcePoint" />
            <mxPoint x="1096.31" y="322.5" as="targetPoint" />
            <Array as="points">
              <mxPoint x="1106.31" y="322.5" />
            </Array>
          </mxGeometry>
        </mxCell>
        <mxCell id="cjOnqs_CUeYG5httte-h-308" value="" style="aspect=fixed;perimeter=ellipsePerimeter;html=1;align=center;shadow=0;dashed=0;spacingTop=3;image;image=img/lib/active_directory/folder.svg;" vertex="1" parent="1">
          <mxGeometry x="1136.31" y="310" width="14.6" height="20" as="geometry" />
        </mxCell>
        <mxCell id="cjOnqs_CUeYG5httte-h-309" value="configVersion" style="text;html=1;strokeColor=none;fillColor=none;align=center;verticalAlign=middle;whiteSpace=wrap;rounded=0;" vertex="1" parent="1">
          <mxGeometry x="1157.38" y="310" width="78.93" height="20" as="geometry" />
        </mxCell>
        <mxCell id="cjOnqs_CUeYG5httte-h-310" value="" style="endArrow=none;html=1;rounded=0;" edge="1" parent="1">
          <mxGeometry width="50" height="50" relative="1" as="geometry">
            <mxPoint x="1134.31" y="924.65" as="sourcePoint" />
            <mxPoint x="1096.31" y="924.65" as="targetPoint" />
            <Array as="points">
              <mxPoint x="1106.31" y="924.65" />
            </Array>
          </mxGeometry>
        </mxCell>
        <mxCell id="cjOnqs_CUeYG5httte-h-311" value="" style="aspect=fixed;perimeter=ellipsePerimeter;html=1;align=center;shadow=0;dashed=0;spacingTop=3;image;image=img/lib/active_directory/folder.svg;" vertex="1" parent="1">
          <mxGeometry x="1136.31" y="912.15" width="14.6" height="20" as="geometry" />
        </mxCell>
        <mxCell id="cjOnqs_CUeYG5httte-h-312" value="error" style="text;html=1;strokeColor=none;fillColor=none;align=center;verticalAlign=middle;whiteSpace=wrap;rounded=0;" vertex="1" parent="1">
          <mxGeometry x="1157.38" y="912.15" width="38.93" height="20" as="geometry" />
        </mxCell>
        <mxCell id="cjOnqs_CUeYG5httte-h-313" value="" style="endArrow=none;html=1;rounded=0;" edge="1" parent="1">
          <mxGeometry width="50" height="50" relative="1" as="geometry">
            <mxPoint x="1132.8" y="1149.94" as="sourcePoint" />
            <mxPoint x="1096.31" y="1150" as="targetPoint" />
            <Array as="points">
              <mxPoint x="1104.8" y="1149.94" />
            </Array>
          </mxGeometry>
        </mxCell>
        <mxCell id="cjOnqs_CUeYG5httte-h-314" value="" style="aspect=fixed;perimeter=ellipsePerimeter;html=1;align=center;shadow=0;dashed=0;spacingTop=3;image;image=img/lib/active_directory/folder.svg;" vertex="1" parent="1">
          <mxGeometry x="1134.8" y="1137.44" width="14.6" height="20" as="geometry" />
        </mxCell>
        <mxCell id="cjOnqs_CUeYG5httte-h-315" value="warehouse" style="text;html=1;strokeColor=none;fillColor=none;align=center;verticalAlign=middle;whiteSpace=wrap;rounded=0;" vertex="1" parent="1">
          <mxGeometry x="1155.8700000000001" y="1137.44" width="78.93" height="20" as="geometry" />
        </mxCell>
        <mxCell id="cjOnqs_CUeYG5httte-h-316" value="" style="shape=partialRectangle;whiteSpace=wrap;html=1;top=0;left=0;fillColor=none;rotation=90;" vertex="1" parent="1">
          <mxGeometry x="1176.31" y="302.5" width="25" height="85" as="geometry" />
        </mxCell>
        <mxCell id="cjOnqs_CUeYG5httte-h-317" value="" style="verticalLabelPosition=bottom;html=1;verticalAlign=top;strokeWidth=1;align=center;outlineConnect=0;dashed=0;outlineConnect=0;shape=mxgraph.aws3d.file;aspect=fixed;strokeColor=#292929;" vertex="1" parent="1">
          <mxGeometry x="1236.31" y="348.55999999999995" width="13.09" height="30" as="geometry" />
        </mxCell>
        <mxCell id="cjOnqs_CUeYG5httte-h-318" value="index.tsx" style="text;html=1;strokeColor=none;fillColor=none;align=center;verticalAlign=middle;whiteSpace=wrap;rounded=0;" vertex="1" parent="1">
          <mxGeometry x="1256.31" y="353.56" width="50" height="20" as="geometry" />
        </mxCell>
        <mxCell id="cjOnqs_CUeYG5httte-h-319" value="" style="shape=partialRectangle;whiteSpace=wrap;html=1;top=0;left=0;fillColor=none;rotation=90;" vertex="1" parent="1">
          <mxGeometry x="1156.31" y="342.67" width="65" height="85" as="geometry" />
        </mxCell>
        <mxCell id="cjOnqs_CUeYG5httte-h-321" value="button" style="text;html=1;strokeColor=none;fillColor=none;align=center;verticalAlign=middle;whiteSpace=wrap;rounded=0;" vertex="1" parent="1">
          <mxGeometry x="1256.31" y="412.37" width="50" height="20" as="geometry" />
        </mxCell>
        <mxCell id="cjOnqs_CUeYG5httte-h-322" value="" style="aspect=fixed;perimeter=ellipsePerimeter;html=1;align=center;shadow=0;dashed=0;spacingTop=3;image;image=img/lib/active_directory/folder.svg;" vertex="1" parent="1">
          <mxGeometry x="1234.8" y="409.99999999999994" width="14.6" height="20" as="geometry" />
        </mxCell>
        <mxCell id="cjOnqs_CUeYG5httte-h-323" value="" style="shape=partialRectangle;whiteSpace=wrap;html=1;top=0;left=0;fillColor=none;rotation=90;" vertex="1" parent="1">
          <mxGeometry x="1046.31" y="519.79" width="285" height="85" as="geometry" />
        </mxCell>
        <mxCell id="cjOnqs_CUeYG5httte-h-324" value="list" style="text;html=1;strokeColor=none;fillColor=none;align=center;verticalAlign=middle;whiteSpace=wrap;rounded=0;" vertex="1" parent="1">
          <mxGeometry x="1251.31" y="697.57" width="50" height="20" as="geometry" />
        </mxCell>
        <mxCell id="cjOnqs_CUeYG5httte-h-325" value="" style="aspect=fixed;perimeter=ellipsePerimeter;html=1;align=center;shadow=0;dashed=0;spacingTop=3;image;image=img/lib/active_directory/folder.svg;" vertex="1" parent="1">
          <mxGeometry x="1234.8" y="697.1199999999999" width="14.6" height="20" as="geometry" />
        </mxCell>
        <mxCell id="cjOnqs_CUeYG5httte-h-326" value="" style="shape=partialRectangle;whiteSpace=wrap;html=1;top=0;left=0;fillColor=none;rotation=90;" vertex="1" parent="1">
          <mxGeometry x="1111.31" y="734.7" width="155" height="85" as="geometry" />
        </mxCell>
        <mxCell id="cjOnqs_CUeYG5httte-h-327" value="status" style="text;html=1;strokeColor=none;fillColor=none;align=center;verticalAlign=middle;whiteSpace=wrap;rounded=0;" vertex="1" parent="1">
          <mxGeometry x="1251.31" y="847.48" width="50" height="20" as="geometry" />
        </mxCell>
        <mxCell id="cjOnqs_CUeYG5httte-h-328" value="" style="aspect=fixed;perimeter=ellipsePerimeter;html=1;align=center;shadow=0;dashed=0;spacingTop=3;image;image=img/lib/active_directory/folder.svg;" vertex="1" parent="1">
          <mxGeometry x="1234.8" y="847.0299999999999" width="14.6" height="20" as="geometry" />
        </mxCell>
        <mxCell id="cjOnqs_CUeYG5httte-h-329" value="" style="shape=partialRectangle;whiteSpace=wrap;html=1;top=0;left=0;fillColor=none;rotation=90;" vertex="1" parent="1">
          <mxGeometry x="1276.31" y="403.95" width="25" height="85" as="geometry" />
        </mxCell>
        <mxCell id="cjOnqs_CUeYG5httte-h-330" value="" style="verticalLabelPosition=bottom;html=1;verticalAlign=top;strokeWidth=1;align=center;outlineConnect=0;dashed=0;outlineConnect=0;shape=mxgraph.aws3d.file;aspect=fixed;strokeColor=#292929;" vertex="1" parent="1">
          <mxGeometry x="1336.31" y="450.00999999999993" width="13.09" height="30" as="geometry" />
        </mxCell>
        <mxCell id="cjOnqs_CUeYG5httte-h-331" value="Discard.tsx" style="text;html=1;strokeColor=none;fillColor=none;align=center;verticalAlign=middle;whiteSpace=wrap;rounded=0;" vertex="1" parent="1">
          <mxGeometry x="1356.31" y="455.01" width="70" height="20" as="geometry" />
        </mxCell>
        <mxCell id="cjOnqs_CUeYG5httte-h-332" value="" style="shape=partialRectangle;whiteSpace=wrap;html=1;top=0;left=0;fillColor=none;rotation=90;" vertex="1" parent="1">
          <mxGeometry x="1266.31" y="437.5" width="45" height="85" as="geometry" />
        </mxCell>
        <mxCell id="cjOnqs_CUeYG5httte-h-333" value="" style="verticalLabelPosition=bottom;html=1;verticalAlign=top;strokeWidth=1;align=center;outlineConnect=0;dashed=0;outlineConnect=0;shape=mxgraph.aws3d.file;aspect=fixed;strokeColor=#292929;" vertex="1" parent="1">
          <mxGeometry x="1336.31" y="493.55999999999995" width="13.09" height="30" as="geometry" />
        </mxCell>
        <mxCell id="cjOnqs_CUeYG5httte-h-334" value="Edit.tsx" style="text;html=1;strokeColor=none;fillColor=none;align=center;verticalAlign=middle;whiteSpace=wrap;rounded=0;" vertex="1" parent="1">
          <mxGeometry x="1356.31" y="498.56" width="50" height="20" as="geometry" />
        </mxCell>
        <mxCell id="cjOnqs_CUeYG5httte-h-335" value="" style="shape=partialRectangle;whiteSpace=wrap;html=1;top=0;left=0;fillColor=none;rotation=90;" vertex="1" parent="1">
          <mxGeometry x="1266.31" y="483.55" width="45" height="85" as="geometry" />
        </mxCell>
        <mxCell id="cjOnqs_CUeYG5httte-h-336" value="" style="verticalLabelPosition=bottom;html=1;verticalAlign=top;strokeWidth=1;align=center;outlineConnect=0;dashed=0;outlineConnect=0;shape=mxgraph.aws3d.file;aspect=fixed;strokeColor=#292929;" vertex="1" parent="1">
          <mxGeometry x="1336.31" y="539.6099999999999" width="13.09" height="30" as="geometry" />
        </mxCell>
        <mxCell id="cjOnqs_CUeYG5httte-h-337" value="Publish.tsx" style="text;html=1;strokeColor=none;fillColor=none;align=center;verticalAlign=middle;whiteSpace=wrap;rounded=0;" vertex="1" parent="1">
          <mxGeometry x="1356.31" y="544.61" width="70" height="20" as="geometry" />
        </mxCell>
        <mxCell id="cjOnqs_CUeYG5httte-h-338" value="" style="shape=partialRectangle;whiteSpace=wrap;html=1;top=0;left=0;fillColor=none;rotation=90;" vertex="1" parent="1">
          <mxGeometry x="1261.31" y="527.48" width="55" height="85" as="geometry" />
        </mxCell>
        <mxCell id="cjOnqs_CUeYG5httte-h-339" value="" style="verticalLabelPosition=bottom;html=1;verticalAlign=top;strokeWidth=1;align=center;outlineConnect=0;dashed=0;outlineConnect=0;shape=mxgraph.aws3d.file;aspect=fixed;strokeColor=#292929;" vertex="1" parent="1">
          <mxGeometry x="1336.31" y="588.5399999999998" width="13.09" height="30" as="geometry" />
        </mxCell>
        <mxCell id="cjOnqs_CUeYG5httte-h-340" value="ViewComment.tsx" style="text;html=1;strokeColor=none;fillColor=none;align=center;verticalAlign=middle;whiteSpace=wrap;rounded=0;" vertex="1" parent="1">
          <mxGeometry x="1356.31" y="593.54" width="110" height="20" as="geometry" />
        </mxCell>
        <mxCell id="cjOnqs_CUeYG5httte-h-341" value="" style="shape=partialRectangle;whiteSpace=wrap;html=1;top=0;left=0;fillColor=none;rotation=90;" vertex="1" parent="1">
          <mxGeometry x="1261.31" y="578.54" width="55" height="85" as="geometry" />
        </mxCell>
        <mxCell id="cjOnqs_CUeYG5httte-h-342" value="" style="verticalLabelPosition=bottom;html=1;verticalAlign=top;strokeWidth=1;align=center;outlineConnect=0;dashed=0;outlineConnect=0;shape=mxgraph.aws3d.file;aspect=fixed;strokeColor=#292929;" vertex="1" parent="1">
          <mxGeometry x="1336.31" y="639.5999999999999" width="13.09" height="30" as="geometry" />
        </mxCell>
        <mxCell id="cjOnqs_CUeYG5httte-h-343" value="ViewLog.tsx" style="text;html=1;strokeColor=none;fillColor=none;align=center;verticalAlign=middle;whiteSpace=wrap;rounded=0;" vertex="1" parent="1">
          <mxGeometry x="1356.31" y="644.6" width="80" height="20" as="geometry" />
        </mxCell>
        <mxCell id="cjOnqs_CUeYG5httte-h-345" value="" style="shape=partialRectangle;whiteSpace=wrap;html=1;top=0;left=0;fillColor=none;rotation=90;" vertex="1" parent="1">
          <mxGeometry x="1266.31" y="690.8399999999999" width="35" height="85" as="geometry" />
        </mxCell>
        <mxCell id="cjOnqs_CUeYG5httte-h-346" value="" style="verticalLabelPosition=bottom;html=1;verticalAlign=top;strokeWidth=1;align=center;outlineConnect=0;dashed=0;outlineConnect=0;shape=mxgraph.aws3d.file;aspect=fixed;strokeColor=#292929;" vertex="1" parent="1">
          <mxGeometry x="1331.31" y="741.8999999999997" width="13.09" height="30" as="geometry" />
        </mxCell>
        <mxCell id="cjOnqs_CUeYG5httte-h-347" value="List.tsx" style="text;html=1;strokeColor=none;fillColor=none;align=center;verticalAlign=middle;whiteSpace=wrap;rounded=0;" vertex="1" parent="1">
          <mxGeometry x="1344.4" y="743.8" width="61.91" height="20" as="geometry" />
        </mxCell>
        <mxCell id="cjOnqs_CUeYG5httte-h-348" value="" style="shape=partialRectangle;whiteSpace=wrap;html=1;top=0;left=0;fillColor=none;rotation=90;" vertex="1" parent="1">
          <mxGeometry x="1256.31" y="731.9" width="55" height="85" as="geometry" />
        </mxCell>
        <mxCell id="cjOnqs_CUeYG5httte-h-350" value="List.test.tsx" style="text;html=1;strokeColor=none;fillColor=none;align=center;verticalAlign=middle;whiteSpace=wrap;rounded=0;" vertex="1" parent="1">
          <mxGeometry x="1344.4" y="790.9599999999999" width="80" height="20" as="geometry" />
        </mxCell>
        <mxCell id="cjOnqs_CUeYG5httte-h-351" value="" style="shape=partialRectangle;whiteSpace=wrap;html=1;top=0;left=0;fillColor=none;rotation=90;" vertex="1" parent="1">
          <mxGeometry x="1168.81" y="909.6399999999999" width="35" height="85" as="geometry" />
        </mxCell>
        <mxCell id="cjOnqs_CUeYG5httte-h-352" value="" style="verticalLabelPosition=bottom;html=1;verticalAlign=top;strokeWidth=1;align=center;outlineConnect=0;dashed=0;outlineConnect=0;shape=mxgraph.aws3d.file;aspect=fixed;strokeColor=#292929;" vertex="1" parent="1">
          <mxGeometry x="1233.81" y="960.6999999999997" width="13.09" height="30" as="geometry" />
        </mxCell>
        <mxCell id="cjOnqs_CUeYG5httte-h-353" value="PageNotFound.tsx" style="text;html=1;strokeColor=none;fillColor=none;align=center;verticalAlign=middle;whiteSpace=wrap;rounded=0;" vertex="1" parent="1">
          <mxGeometry x="1246.9" y="962.6" width="109.41" height="20" as="geometry" />
        </mxCell>
        <mxCell id="cjOnqs_CUeYG5httte-h-354" value="" style="shape=partialRectangle;whiteSpace=wrap;html=1;top=0;left=0;fillColor=none;rotation=90;" vertex="1" parent="1">
          <mxGeometry x="1158.81" y="950.6999999999999" width="55" height="85" as="geometry" />
        </mxCell>
        <mxCell id="cjOnqs_CUeYG5httte-h-356" value="PageNotFound.test.tsx" style="text;html=1;strokeColor=none;fillColor=none;align=center;verticalAlign=middle;whiteSpace=wrap;rounded=0;" vertex="1" parent="1">
          <mxGeometry x="1246.9" y="1009.76" width="139.41" height="20" as="geometry" />
        </mxCell>
        <mxCell id="cjOnqs_CUeYG5httte-h-357" value="" style="shape=partialRectangle;whiteSpace=wrap;html=1;top=0;left=0;fillColor=none;rotation=90;" vertex="1" parent="1">
          <mxGeometry x="1168.81" y="996.3699999999999" width="35" height="85" as="geometry" />
        </mxCell>
        <mxCell id="cjOnqs_CUeYG5httte-h-358" value="" style="verticalLabelPosition=bottom;html=1;verticalAlign=top;strokeWidth=1;align=center;outlineConnect=0;dashed=0;outlineConnect=0;shape=mxgraph.aws3d.file;aspect=fixed;strokeColor=#292929;" vertex="1" parent="1">
          <mxGeometry x="1233.81" y="1047.4299999999996" width="13.09" height="30" as="geometry" />
        </mxCell>
        <mxCell id="cjOnqs_CUeYG5httte-h-359" value="ServerError.tsx" style="text;html=1;strokeColor=none;fillColor=none;align=center;verticalAlign=middle;whiteSpace=wrap;rounded=0;" vertex="1" parent="1">
          <mxGeometry x="1246.9" y="1049.33" width="99.41" height="20" as="geometry" />
        </mxCell>
        <mxCell id="cjOnqs_CUeYG5httte-h-360" value="" style="shape=partialRectangle;whiteSpace=wrap;html=1;top=0;left=0;fillColor=none;rotation=90;" vertex="1" parent="1">
          <mxGeometry x="1158.81" y="1037.4299999999998" width="55" height="85" as="geometry" />
        </mxCell>
        <mxCell id="cjOnqs_CUeYG5httte-h-362" value="ServerError.test.tsx" style="text;html=1;strokeColor=none;fillColor=none;align=center;verticalAlign=middle;whiteSpace=wrap;rounded=0;" vertex="1" parent="1">
          <mxGeometry x="1246.9" y="1096.49" width="119.41" height="20" as="geometry" />
        </mxCell>
        <mxCell id="cjOnqs_CUeYG5httte-h-363" value="" style="shape=partialRectangle;whiteSpace=wrap;html=1;top=0;left=0;fillColor=none;rotation=90;" vertex="1" parent="1">
          <mxGeometry x="1168.81" y="1139.75" width="35" height="85" as="geometry" />
        </mxCell>
        <mxCell id="cjOnqs_CUeYG5httte-h-364" value="Detail.tsx" style="text;html=1;strokeColor=none;fillColor=none;align=center;verticalAlign=middle;whiteSpace=wrap;rounded=0;" vertex="1" parent="1">
          <mxGeometry x="1256.9" y="1190" width="49.41" height="20" as="geometry" />
        </mxCell>
        <mxCell id="cjOnqs_CUeYG5httte-h-365" value="" style="verticalLabelPosition=bottom;html=1;verticalAlign=top;strokeWidth=1;align=center;outlineConnect=0;dashed=0;outlineConnect=0;shape=mxgraph.aws3d.file;aspect=fixed;strokeColor=#292929;" vertex="1" parent="1">
          <mxGeometry x="1234.8" y="1184.9999999999998" width="13.09" height="30" as="geometry" />
        </mxCell>
        <mxCell id="cjOnqs_CUeYG5httte-h-366" value="" style="shape=partialRectangle;whiteSpace=wrap;html=1;top=0;left=0;fillColor=none;rotation=90;" vertex="1" parent="1">
          <mxGeometry x="1157.5" y="1186.17" width="57.61" height="85" as="geometry" />
        </mxCell>
        <mxCell id="cjOnqs_CUeYG5httte-h-367" value="" style="aspect=fixed;perimeter=ellipsePerimeter;html=1;align=center;shadow=0;dashed=0;spacingTop=3;image;image=img/lib/active_directory/folder.svg;" vertex="1" parent="1">
          <mxGeometry x="1233.8100000000002" y="1248.5000000000002" width="14.6" height="20" as="geometry" />
        </mxCell>
        <mxCell id="cjOnqs_CUeYG5httte-h-368" value="BreadcrumbCanvas" style="text;html=1;strokeColor=none;fillColor=none;align=center;verticalAlign=middle;whiteSpace=wrap;rounded=0;" vertex="1" parent="1">
          <mxGeometry x="1248.41" y="1248.5" width="117.9" height="20" as="geometry" />
        </mxCell>
        <mxCell id="cjOnqs_CUeYG5httte-h-372" value="" style="shape=partialRectangle;whiteSpace=wrap;html=1;top=0;left=0;fillColor=none;rotation=90;" vertex="1" parent="1">
          <mxGeometry x="1158.7" y="1238.74" width="55.22" height="85" as="geometry" />
        </mxCell>
        <mxCell id="cjOnqs_CUeYG5httte-h-373" value="" style="aspect=fixed;perimeter=ellipsePerimeter;html=1;align=center;shadow=0;dashed=0;spacingTop=3;image;image=img/lib/active_directory/folder.svg;" vertex="1" parent="1">
          <mxGeometry x="1233.8100000000002" y="1299.8800000000003" width="14.6" height="20" as="geometry" />
        </mxCell>
        <mxCell id="cjOnqs_CUeYG5httte-h-374" value="Canvas" style="text;html=1;strokeColor=none;fillColor=none;align=center;verticalAlign=middle;whiteSpace=wrap;rounded=0;" vertex="1" parent="1">
          <mxGeometry x="1248.41" y="1299.88" width="57.9" height="20" as="geometry" />
        </mxCell>
        <mxCell id="cjOnqs_CUeYG5httte-h-375" value="" style="shape=partialRectangle;whiteSpace=wrap;html=1;top=0;left=0;fillColor=none;rotation=90;" vertex="1" parent="1">
          <mxGeometry x="960" y="1490.17" width="452.6" height="85" as="geometry" />
        </mxCell>
        <mxCell id="cjOnqs_CUeYG5httte-h-376" value="" style="aspect=fixed;perimeter=ellipsePerimeter;html=1;align=center;shadow=0;dashed=0;spacingTop=3;image;image=img/lib/active_directory/folder.svg;" vertex="1" parent="1">
          <mxGeometry x="1233.8000000000002" y="1750.0000000000002" width="14.6" height="20" as="geometry" />
        </mxCell>
        <mxCell id="cjOnqs_CUeYG5httte-h-377" value="Modal" style="text;html=1;strokeColor=none;fillColor=none;align=center;verticalAlign=middle;whiteSpace=wrap;rounded=0;" vertex="1" parent="1">
          <mxGeometry x="1248.4" y="1750.0000000000002" width="57.9" height="20" as="geometry" />
        </mxCell>
        <mxCell id="cjOnqs_CUeYG5httte-h-378" value="" style="shape=partialRectangle;whiteSpace=wrap;html=1;top=0;left=0;fillColor=none;rotation=90;" vertex="1" parent="1">
          <mxGeometry x="1048.7" y="1854.72" width="275.21" height="85" as="geometry" />
        </mxCell>
        <mxCell id="cjOnqs_CUeYG5httte-h-379" value="" style="aspect=fixed;perimeter=ellipsePerimeter;html=1;align=center;shadow=0;dashed=0;spacingTop=3;image;image=img/lib/active_directory/folder.svg;" vertex="1" parent="1">
          <mxGeometry x="1233.8000000000002" y="2025.85" width="14.6" height="20" as="geometry" />
        </mxCell>
        <mxCell id="cjOnqs_CUeYG5httte-h-380" value="List" style="text;html=1;strokeColor=none;fillColor=none;align=center;verticalAlign=middle;whiteSpace=wrap;rounded=0;" vertex="1" parent="1">
          <mxGeometry x="1248.4" y="2025.85" width="57.9" height="20" as="geometry" />
        </mxCell>
        <mxCell id="cjOnqs_CUeYG5httte-h-381" value="" style="shape=partialRectangle;whiteSpace=wrap;html=1;top=0;left=0;fillColor=none;rotation=90;" vertex="1" parent="1">
          <mxGeometry x="1266.31" y="1302.44" width="35" height="85" as="geometry" />
        </mxCell>
        <mxCell id="cjOnqs_CUeYG5httte-h-382" value="index.tsx" style="text;html=1;strokeColor=none;fillColor=none;align=center;verticalAlign=middle;whiteSpace=wrap;rounded=0;" vertex="1" parent="1">
          <mxGeometry x="1350.3500000000001" y="1352.44" width="61.91" height="20" as="geometry" />
        </mxCell>
        <mxCell id="cjOnqs_CUeYG5httte-h-383" value="" style="verticalLabelPosition=bottom;html=1;verticalAlign=top;strokeWidth=1;align=center;outlineConnect=0;dashed=0;outlineConnect=0;shape=mxgraph.aws3d.file;aspect=fixed;strokeColor=#292929;" vertex="1" parent="1">
          <mxGeometry x="1333.22" y="1347.4399999999998" width="13.09" height="30" as="geometry" />
        </mxCell>
        <mxCell id="cjOnqs_CUeYG5httte-h-384" value="" style="shape=partialRectangle;whiteSpace=wrap;html=1;top=0;left=0;fillColor=none;rotation=90;" vertex="1" parent="1">
          <mxGeometry x="1261.92" y="1343.05" width="41.66" height="82.56" as="geometry" />
        </mxCell>
        <mxCell id="cjOnqs_CUeYG5httte-h-385" value="" style="aspect=fixed;perimeter=ellipsePerimeter;html=1;align=center;shadow=0;dashed=0;spacingTop=3;image;image=img/lib/active_directory/folder.svg;" vertex="1" parent="1">
          <mxGeometry x="1329.03" y="1396.1900000000003" width="14.6" height="20" as="geometry" />
        </mxCell>
        <mxCell id="cjOnqs_CUeYG5httte-h-386" value="DeleteShape" style="text;html=1;strokeColor=none;fillColor=none;align=center;verticalAlign=middle;whiteSpace=wrap;rounded=0;" vertex="1" parent="1">
          <mxGeometry x="1343.63" y="1396.19" width="92.68" height="20" as="geometry" />
        </mxCell>
        <mxCell id="cjOnqs_CUeYG5httte-h-387" value="" style="shape=partialRectangle;whiteSpace=wrap;html=1;top=0;left=0;fillColor=none;rotation=90;" vertex="1" parent="1">
          <mxGeometry x="1261.92" y="1379.8799999999999" width="41.66" height="82.56" as="geometry" />
        </mxCell>
        <mxCell id="cjOnqs_CUeYG5httte-h-388" value="" style="aspect=fixed;perimeter=ellipsePerimeter;html=1;align=center;shadow=0;dashed=0;spacingTop=3;image;image=img/lib/active_directory/folder.svg;" vertex="1" parent="1">
          <mxGeometry x="1329.03" y="1433.0200000000002" width="14.6" height="20" as="geometry" />
        </mxCell>
        <mxCell id="cjOnqs_CUeYG5httte-h-389" value="shapes" style="text;html=1;strokeColor=none;fillColor=none;align=center;verticalAlign=middle;whiteSpace=wrap;rounded=0;" vertex="1" parent="1">
          <mxGeometry x="1343.63" y="1433.02" width="62.68" height="20" as="geometry" />
        </mxCell>
        <mxCell id="cjOnqs_CUeYG5httte-h-390" value="" style="shape=partialRectangle;whiteSpace=wrap;html=1;top=0;left=0;fillColor=none;rotation=90;" vertex="1" parent="1">
          <mxGeometry x="1356.31" y="1433.02" width="41.66" height="82.56" as="geometry" />
        </mxCell>
        <mxCell id="cjOnqs_CUeYG5httte-h-391" value="" style="aspect=fixed;perimeter=ellipsePerimeter;html=1;align=center;shadow=0;dashed=0;spacingTop=3;image;image=img/lib/active_directory/folder.svg;" vertex="1" parent="1">
          <mxGeometry x="1423.42" y="1486.1600000000003" width="14.6" height="20" as="geometry" />
        </mxCell>
        <mxCell id="cjOnqs_CUeYG5httte-h-392" value="BaydoorAisleShape" style="text;html=1;strokeColor=none;fillColor=none;align=center;verticalAlign=middle;whiteSpace=wrap;rounded=0;" vertex="1" parent="1">
          <mxGeometry x="1438.02" y="1486.16" width="128.29" height="20" as="geometry" />
        </mxCell>
        <mxCell id="cjOnqs_CUeYG5httte-h-393" value="" style="shape=partialRectangle;whiteSpace=wrap;html=1;top=0;left=0;fillColor=none;rotation=90;" vertex="1" parent="1">
          <mxGeometry x="1356.31" y="1470.94" width="41.66" height="82.56" as="geometry" />
        </mxCell>
        <mxCell id="cjOnqs_CUeYG5httte-h-394" value="" style="aspect=fixed;perimeter=ellipsePerimeter;html=1;align=center;shadow=0;dashed=0;spacingTop=3;image;image=img/lib/active_directory/folder.svg;" vertex="1" parent="1">
          <mxGeometry x="1423.42" y="1524.0800000000004" width="14.6" height="20" as="geometry" />
        </mxCell>
        <mxCell id="cjOnqs_CUeYG5httte-h-395" value="BaydoorLevelShape" style="text;html=1;strokeColor=none;fillColor=none;align=center;verticalAlign=middle;whiteSpace=wrap;rounded=0;" vertex="1" parent="1">
          <mxGeometry x="1438.02" y="1524.0800000000002" width="128.29" height="20" as="geometry" />
        </mxCell>
        <mxCell id="cjOnqs_CUeYG5httte-h-396" value="" style="shape=partialRectangle;whiteSpace=wrap;html=1;top=0;left=0;fillColor=none;rotation=90;" vertex="1" parent="1">
          <mxGeometry x="1356.31" y="1511.22" width="41.66" height="82.56" as="geometry" />
        </mxCell>
        <mxCell id="cjOnqs_CUeYG5httte-h-397" value="" style="aspect=fixed;perimeter=ellipsePerimeter;html=1;align=center;shadow=0;dashed=0;spacingTop=3;image;image=img/lib/active_directory/folder.svg;" vertex="1" parent="1">
          <mxGeometry x="1423.42" y="1564.3600000000004" width="14.6" height="20" as="geometry" />
        </mxCell>
        <mxCell id="cjOnqs_CUeYG5httte-h-398" value="BaydoorShape" style="text;html=1;strokeColor=none;fillColor=none;align=center;verticalAlign=middle;whiteSpace=wrap;rounded=0;" vertex="1" parent="1">
          <mxGeometry x="1438.02" y="1564.36" width="98.29" height="20" as="geometry" />
        </mxCell>
        <mxCell id="cjOnqs_CUeYG5httte-h-399" value="" style="shape=partialRectangle;whiteSpace=wrap;html=1;top=0;left=0;fillColor=none;rotation=90;" vertex="1" parent="1">
          <mxGeometry x="1356.31" y="1553.5" width="41.66" height="82.56" as="geometry" />
        </mxCell>
        <mxCell id="cjOnqs_CUeYG5httte-h-400" value="" style="aspect=fixed;perimeter=ellipsePerimeter;html=1;align=center;shadow=0;dashed=0;spacingTop=3;image;image=img/lib/active_directory/folder.svg;" vertex="1" parent="1">
          <mxGeometry x="1423.42" y="1606.6400000000003" width="14.6" height="20" as="geometry" />
        </mxCell>
        <mxCell id="cjOnqs_CUeYG5httte-h-401" value="ImageShape" style="text;html=1;strokeColor=none;fillColor=none;align=center;verticalAlign=middle;whiteSpace=wrap;rounded=0;" vertex="1" parent="1">
          <mxGeometry x="1438.02" y="1606.64" width="88.29" height="20" as="geometry" />
        </mxCell>
        <mxCell id="cjOnqs_CUeYG5httte-h-402" value="" style="shape=partialRectangle;whiteSpace=wrap;html=1;top=0;left=0;fillColor=none;rotation=90;" vertex="1" parent="1">
          <mxGeometry x="1356.31" y="1595" width="41.66" height="82.56" as="geometry" />
        </mxCell>
        <mxCell id="cjOnqs_CUeYG5httte-h-403" value="" style="aspect=fixed;perimeter=ellipsePerimeter;html=1;align=center;shadow=0;dashed=0;spacingTop=3;image;image=img/lib/active_directory/folder.svg;" vertex="1" parent="1">
          <mxGeometry x="1423.42" y="1648.1400000000003" width="14.6" height="20" as="geometry" />
        </mxCell>
        <mxCell id="cjOnqs_CUeYG5httte-h-404" value="RectangleShape" style="text;html=1;strokeColor=none;fillColor=none;align=center;verticalAlign=middle;whiteSpace=wrap;rounded=0;" vertex="1" parent="1">
          <mxGeometry x="1438.02" y="1648.14" width="108.29" height="20" as="geometry" />
        </mxCell>
        <mxCell id="cjOnqs_CUeYG5httte-h-405" value="" style="shape=partialRectangle;whiteSpace=wrap;html=1;top=0;left=0;fillColor=none;rotation=90;" vertex="1" parent="1">
          <mxGeometry x="1356.31" y="1636.06" width="41.66" height="82.56" as="geometry" />
        </mxCell>
        <mxCell id="cjOnqs_CUeYG5httte-h-406" value="" style="aspect=fixed;perimeter=ellipsePerimeter;html=1;align=center;shadow=0;dashed=0;spacingTop=3;image;image=img/lib/active_directory/folder.svg;" vertex="1" parent="1">
          <mxGeometry x="1423.42" y="1689.2000000000003" width="14.6" height="20" as="geometry" />
        </mxCell>
        <mxCell id="cjOnqs_CUeYG5httte-h-407" value="TransformerShape" style="text;html=1;strokeColor=none;fillColor=none;align=center;verticalAlign=middle;whiteSpace=wrap;rounded=0;" vertex="1" parent="1">
          <mxGeometry x="1438.02" y="1689.2" width="118.29" height="20" as="geometry" />
        </mxCell>
        <mxCell id="cjOnqs_CUeYG5httte-h-408" value="" style="shape=partialRectangle;whiteSpace=wrap;html=1;top=0;left=0;fillColor=none;rotation=90;" vertex="1" parent="1">
          <mxGeometry x="1266.31" y="1750" width="35.4" height="85" as="geometry" />
        </mxCell>
        <mxCell id="cjOnqs_CUeYG5httte-h-409" value="" style="verticalLabelPosition=bottom;html=1;verticalAlign=top;strokeWidth=1;align=center;outlineConnect=0;dashed=0;outlineConnect=0;shape=mxgraph.aws3d.file;aspect=fixed;strokeColor=#292929;" vertex="1" parent="1">
          <mxGeometry x="1335.66" y="1796.0499999999997" width="13.09" height="30" as="geometry" />
        </mxCell>
        <mxCell id="cjOnqs_CUeYG5httte-h-410" value="AddNewWareHouseModal.tsx" style="text;html=1;strokeColor=none;fillColor=none;align=center;verticalAlign=middle;whiteSpace=wrap;rounded=0;" vertex="1" parent="1">
          <mxGeometry x="1348.75" y="1801.05" width="177.56" height="20" as="geometry" />
        </mxCell>
        <mxCell id="cjOnqs_CUeYG5httte-h-411" value="" style="shape=partialRectangle;whiteSpace=wrap;html=1;top=0;left=0;fillColor=none;rotation=90;" vertex="1" parent="1">
          <mxGeometry x="1266.31" y="1786.0499999999997" width="35.4" height="85" as="geometry" />
        </mxCell>
        <mxCell id="cjOnqs_CUeYG5httte-h-412" value="AddNewWareHouseModal.test.tsx" style="text;html=1;strokeColor=none;fillColor=none;align=center;verticalAlign=middle;whiteSpace=wrap;rounded=0;" vertex="1" parent="1">
          <mxGeometry x="1348.75" y="1837.1" width="197.56" height="20" as="geometry" />
        </mxCell>
        <mxCell id="cjOnqs_CUeYG5httte-h-413" value="" style="aspect=fixed;html=1;points=[];align=center;image;fontSize=12;image=img/lib/azure2/general/File.svg;" vertex="1" parent="1">
          <mxGeometry x="1334.19" y="1837.1100000000001" width="14.56" height="17.94" as="geometry" />
        </mxCell>
        <mxCell id="cjOnqs_CUeYG5httte-h-414" value="" style="shape=partialRectangle;whiteSpace=wrap;html=1;top=0;left=0;fillColor=none;rotation=90;" vertex="1" parent="1">
          <mxGeometry x="1266.31" y="1821.05" width="35.4" height="85" as="geometry" />
        </mxCell>
        <mxCell id="cjOnqs_CUeYG5httte-h-415" value="" style="verticalLabelPosition=bottom;html=1;verticalAlign=top;strokeWidth=1;align=center;outlineConnect=0;dashed=0;outlineConnect=0;shape=mxgraph.aws3d.file;aspect=fixed;strokeColor=#292929;" vertex="1" parent="1">
          <mxGeometry x="1335.66" y="1867.0999999999997" width="13.09" height="30" as="geometry" />
        </mxCell>
        <mxCell id="cjOnqs_CUeYG5httte-h-416" value="EditWareHouseModal.tsx" style="text;html=1;strokeColor=none;fillColor=none;align=center;verticalAlign=middle;whiteSpace=wrap;rounded=0;" vertex="1" parent="1">
          <mxGeometry x="1348.75" y="1872.1" width="157.56" height="20" as="geometry" />
        </mxCell>
        <mxCell id="cjOnqs_CUeYG5httte-h-417" value="" style="shape=partialRectangle;whiteSpace=wrap;html=1;top=0;left=0;fillColor=none;rotation=90;" vertex="1" parent="1">
          <mxGeometry x="1266.31" y="1857.0999999999997" width="35.4" height="85" as="geometry" />
        </mxCell>
        <mxCell id="cjOnqs_CUeYG5httte-h-418" value="EditWareHouseModal.test.tsx" style="text;html=1;strokeColor=none;fillColor=none;align=center;verticalAlign=middle;whiteSpace=wrap;rounded=0;" vertex="1" parent="1">
          <mxGeometry x="1348.75" y="1908.15" width="177.56" height="20" as="geometry" />
        </mxCell>
        <mxCell id="cjOnqs_CUeYG5httte-h-419" value="" style="aspect=fixed;html=1;points=[];align=center;image;fontSize=12;image=img/lib/azure2/general/File.svg;" vertex="1" parent="1">
          <mxGeometry x="1334.19" y="1908.16" width="14.56" height="17.94" as="geometry" />
        </mxCell>
        <mxCell id="cjOnqs_CUeYG5httte-h-420" value="" style="shape=partialRectangle;whiteSpace=wrap;html=1;top=0;left=0;fillColor=none;rotation=90;" vertex="1" parent="1">
          <mxGeometry x="1266.31" y="1892.1" width="35.4" height="85" as="geometry" />
        </mxCell>
        <mxCell id="cjOnqs_CUeYG5httte-h-421" value="" style="verticalLabelPosition=bottom;html=1;verticalAlign=top;strokeWidth=1;align=center;outlineConnect=0;dashed=0;outlineConnect=0;shape=mxgraph.aws3d.file;aspect=fixed;strokeColor=#292929;" vertex="1" parent="1">
          <mxGeometry x="1335.66" y="1938.1499999999996" width="13.09" height="30" as="geometry" />
        </mxCell>
        <mxCell id="cjOnqs_CUeYG5httte-h-422" value="ConfigurationRequirementModal.tsx" style="text;html=1;strokeColor=none;fillColor=none;align=center;verticalAlign=middle;whiteSpace=wrap;rounded=0;" vertex="1" parent="1">
          <mxGeometry x="1344.4" y="1943.15" width="221.91" height="20" as="geometry" />
        </mxCell>
        <mxCell id="cjOnqs_CUeYG5httte-h-423" value="" style="shape=partialRectangle;whiteSpace=wrap;html=1;top=0;left=0;fillColor=none;rotation=90;" vertex="1" parent="1">
          <mxGeometry x="1266.31" y="1928.1499999999996" width="35.4" height="85" as="geometry" />
        </mxCell>
        <mxCell id="cjOnqs_CUeYG5httte-h-424" value="ConfigurationRequirementModal.test.tsx" style="text;html=1;strokeColor=none;fillColor=none;align=center;verticalAlign=middle;whiteSpace=wrap;rounded=0;" vertex="1" parent="1">
          <mxGeometry x="1348.75" y="1979.2" width="237.56" height="20" as="geometry" />
        </mxCell>
        <mxCell id="cjOnqs_CUeYG5httte-h-425" value="" style="aspect=fixed;html=1;points=[];align=center;image;fontSize=12;image=img/lib/azure2/general/File.svg;" vertex="1" parent="1">
          <mxGeometry x="1334.19" y="1979.21" width="14.56" height="17.94" as="geometry" />
        </mxCell>
        <mxCell id="cjOnqs_CUeYG5httte-h-426" value="" style="shape=partialRectangle;whiteSpace=wrap;html=1;top=0;left=0;fillColor=none;rotation=90;" vertex="1" parent="1">
          <mxGeometry x="1266.31" y="2025.85" width="35.4" height="85" as="geometry" />
        </mxCell>
        <mxCell id="cjOnqs_CUeYG5httte-h-427" value="" style="verticalLabelPosition=bottom;html=1;verticalAlign=top;strokeWidth=1;align=center;outlineConnect=0;dashed=0;outlineConnect=0;shape=mxgraph.aws3d.file;aspect=fixed;strokeColor=#292929;" vertex="1" parent="1">
          <mxGeometry x="1335.66" y="2071.8999999999996" width="13.09" height="30" as="geometry" />
        </mxCell>
        <mxCell id="cjOnqs_CUeYG5httte-h-428" value="List.tsx" style="text;html=1;strokeColor=none;fillColor=none;align=center;verticalAlign=middle;whiteSpace=wrap;rounded=0;" vertex="1" parent="1">
          <mxGeometry x="1348.75" y="2076.9" width="57.56" height="20" as="geometry" />
        </mxCell>
        <mxCell id="cjOnqs_CUeYG5httte-h-429" value="" style="shape=partialRectangle;whiteSpace=wrap;html=1;top=0;left=0;fillColor=none;rotation=90;" vertex="1" parent="1">
          <mxGeometry x="1266.31" y="2061.8999999999996" width="35.4" height="85" as="geometry" />
        </mxCell>
        <mxCell id="cjOnqs_CUeYG5httte-h-430" value="List.test.tsx" style="text;html=1;strokeColor=none;fillColor=none;align=center;verticalAlign=middle;whiteSpace=wrap;rounded=0;" vertex="1" parent="1">
          <mxGeometry x="1348.75" y="2112.95" width="77.56" height="20" as="geometry" />
        </mxCell>
        <mxCell id="cjOnqs_CUeYG5httte-h-431" value="" style="aspect=fixed;html=1;points=[];align=center;image;fontSize=12;image=img/lib/azure2/general/File.svg;" vertex="1" parent="1">
          <mxGeometry x="1334.19" y="2112.96" width="14.56" height="17.94" as="geometry" />
        </mxCell>
        <mxCell id="cjOnqs_CUeYG5httte-h-432" value="" style="shape=partialRectangle;whiteSpace=wrap;html=1;top=0;left=0;fillColor=none;rotation=90;" vertex="1" parent="1">
          <mxGeometry x="1266.31" y="2096.9" width="35.4" height="85" as="geometry" />
        </mxCell>
        <mxCell id="cjOnqs_CUeYG5httte-h-433" value="" style="verticalLabelPosition=bottom;html=1;verticalAlign=top;strokeWidth=1;align=center;outlineConnect=0;dashed=0;outlineConnect=0;shape=mxgraph.aws3d.file;aspect=fixed;strokeColor=#292929;" vertex="1" parent="1">
          <mxGeometry x="1335.66" y="2142.9499999999994" width="13.09" height="30" as="geometry" />
        </mxCell>
        <mxCell id="cjOnqs_CUeYG5httte-h-434" value="ActionButton.tsx" style="text;html=1;strokeColor=none;fillColor=none;align=center;verticalAlign=middle;whiteSpace=wrap;rounded=0;" vertex="1" parent="1">
          <mxGeometry x="1348.75" y="2147.95" width="107.56" height="20" as="geometry" />
        </mxCell>
        <mxCell id="cjOnqs_CUeYG5httte-h-435" value="" style="shape=partialRectangle;whiteSpace=wrap;html=1;top=0;left=0;fillColor=none;rotation=90;" vertex="1" parent="1">
          <mxGeometry x="1266.31" y="2132.9499999999994" width="35.4" height="85" as="geometry" />
        </mxCell>
        <mxCell id="cjOnqs_CUeYG5httte-h-436" value="ActionButton.test.tsx" style="text;html=1;strokeColor=none;fillColor=none;align=center;verticalAlign=middle;whiteSpace=wrap;rounded=0;" vertex="1" parent="1">
          <mxGeometry x="1348.75" y="2184" width="127.56" height="20" as="geometry" />
        </mxCell>
        <mxCell id="cjOnqs_CUeYG5httte-h-437" value="" style="aspect=fixed;html=1;points=[];align=center;image;fontSize=12;image=img/lib/azure2/general/File.svg;" vertex="1" parent="1">
          <mxGeometry x="1334.19" y="2184.0099999999998" width="14.56" height="17.94" as="geometry" />
        </mxCell>
        <mxCell id="cjOnqs_CUeYG5httte-h-438" value="" style="shape=partialRectangle;whiteSpace=wrap;html=1;top=0;left=0;fillColor=none;rotation=90;" vertex="1" parent="1">
          <mxGeometry x="1266.31" y="2167.95" width="35.4" height="85" as="geometry" />
        </mxCell>
        <mxCell id="cjOnqs_CUeYG5httte-h-439" value="" style="verticalLabelPosition=bottom;html=1;verticalAlign=top;strokeWidth=1;align=center;outlineConnect=0;dashed=0;outlineConnect=0;shape=mxgraph.aws3d.file;aspect=fixed;strokeColor=#292929;" vertex="1" parent="1">
          <mxGeometry x="1335.66" y="2213.9999999999995" width="13.09" height="30" as="geometry" />
        </mxCell>
        <mxCell id="cjOnqs_CUeYG5httte-h-440" value="index.tsx" style="text;html=1;strokeColor=none;fillColor=none;align=center;verticalAlign=middle;whiteSpace=wrap;rounded=0;" vertex="1" parent="1">
          <mxGeometry x="1344.4" y="2219" width="71.91" height="20" as="geometry" />
        </mxCell>
        <mxCell id="cjOnqs_CUeYG5httte-h-444" value="" style="aspect=fixed;html=1;points=[];align=center;image;fontSize=12;image=img/lib/azure2/general/File.svg;" vertex="1" parent="1">
          <mxGeometry x="1236.31" y="1097.44" width="14.56" height="17.94" as="geometry" />
        </mxCell>
        <mxCell id="cjOnqs_CUeYG5httte-h-446" value="" style="aspect=fixed;html=1;points=[];align=center;image;fontSize=12;image=img/lib/azure2/general/File.svg;" vertex="1" parent="1">
          <mxGeometry x="1233.33" y="1009.76" width="14.56" height="17.94" as="geometry" />
        </mxCell>
        <mxCell id="cjOnqs_CUeYG5httte-h-447" value="" style="aspect=fixed;html=1;points=[];align=center;image;fontSize=12;image=img/lib/azure2/general/File.svg;" vertex="1" parent="1">
          <mxGeometry x="1331.75" y="790.96" width="14.56" height="17.94" as="geometry" />
        </mxCell>
        <mxCell id="cjOnqs_CUeYG5httte-h-448" value="" style="endArrow=none;html=1;rounded=0;exitX=-0.141;exitY=0.497;exitDx=0;exitDy=0;exitPerimeter=0;" edge="1" parent="1" source="cjOnqs_CUeYG5httte-h-449">
          <mxGeometry width="50" height="50" relative="1" as="geometry">
            <mxPoint x="910" y="219.98" as="sourcePoint" />
            <mxPoint x="849.9999999999991" y="219.9799999999999" as="targetPoint" />
          </mxGeometry>
        </mxCell>
        <mxCell id="cjOnqs_CUeYG5httte-h-449" value="" style="aspect=fixed;perimeter=ellipsePerimeter;html=1;align=center;shadow=0;dashed=0;spacingTop=3;image;image=img/lib/active_directory/folder.svg;" vertex="1" parent="1">
          <mxGeometry x="890" y="210" width="14.6" height="20" as="geometry" />
        </mxCell>
        <mxCell id="cjOnqs_CUeYG5httte-h-450" value="Menu" style="text;html=1;strokeColor=none;fillColor=none;align=center;verticalAlign=middle;whiteSpace=wrap;rounded=0;" vertex="1" parent="1">
          <mxGeometry x="911.0700000000002" y="210" width="48.93" height="20" as="geometry" />
        </mxCell>
        <mxCell id="cjOnqs_CUeYG5httte-h-451" value="" style="endArrow=none;html=1;rounded=0;" edge="1" parent="1">
          <mxGeometry width="50" height="50" relative="1" as="geometry">
            <mxPoint x="850" y="219.99999999999977" as="sourcePoint" />
            <mxPoint x="849.9999999999995" y="175" as="targetPoint" />
          </mxGeometry>
        </mxCell>
        <mxCell id="cjOnqs_CUeYG5httte-h-452" value="" style="endArrow=none;html=1;rounded=0;exitX=-0.141;exitY=0.497;exitDx=0;exitDy=0;exitPerimeter=0;" edge="1" parent="1" source="cjOnqs_CUeYG5httte-h-453">
          <mxGeometry width="50" height="50" relative="1" as="geometry">
            <mxPoint x="910" y="262.48" as="sourcePoint" />
            <mxPoint x="849.9999999999991" y="262.4799999999999" as="targetPoint" />
          </mxGeometry>
        </mxCell>
        <mxCell id="cjOnqs_CUeYG5httte-h-453" value="" style="aspect=fixed;perimeter=ellipsePerimeter;html=1;align=center;shadow=0;dashed=0;spacingTop=3;image;image=img/lib/active_directory/folder.svg;" vertex="1" parent="1">
          <mxGeometry x="890" y="252.5" width="14.6" height="20" as="geometry" />
        </mxCell>
        <mxCell id="cjOnqs_CUeYG5httte-h-454" value="Topbar" style="text;html=1;strokeColor=none;fillColor=none;align=center;verticalAlign=middle;whiteSpace=wrap;rounded=0;" vertex="1" parent="1">
          <mxGeometry x="911.0700000000002" y="252.5" width="48.93" height="20" as="geometry" />
        </mxCell>
        <mxCell id="cjOnqs_CUeYG5httte-h-455" value="" style="endArrow=none;html=1;rounded=0;" edge="1" parent="1">
          <mxGeometry width="50" height="50" relative="1" as="geometry">
            <mxPoint x="850" y="262.4999999999998" as="sourcePoint" />
            <mxPoint x="849.9999999999995" y="217.5" as="targetPoint" />
          </mxGeometry>
        </mxCell>
        <mxCell id="cjOnqs_CUeYG5httte-h-456" value="" style="endArrow=none;html=1;rounded=0;exitX=-0.141;exitY=0.497;exitDx=0;exitDy=0;exitPerimeter=0;" edge="1" parent="1" source="cjOnqs_CUeYG5httte-h-457">
          <mxGeometry width="50" height="50" relative="1" as="geometry">
            <mxPoint x="910" y="306.03000000000003" as="sourcePoint" />
            <mxPoint x="849.9999999999991" y="306.0299999999999" as="targetPoint" />
          </mxGeometry>
        </mxCell>
        <mxCell id="cjOnqs_CUeYG5httte-h-457" value="" style="aspect=fixed;perimeter=ellipsePerimeter;html=1;align=center;shadow=0;dashed=0;spacingTop=3;image;image=img/lib/active_directory/folder.svg;" vertex="1" parent="1">
          <mxGeometry x="890" y="296.05" width="14.6" height="20" as="geometry" />
        </mxCell>
        <mxCell id="cjOnqs_CUeYG5httte-h-458" value="Footer" style="text;html=1;strokeColor=none;fillColor=none;align=center;verticalAlign=middle;whiteSpace=wrap;rounded=0;" vertex="1" parent="1">
          <mxGeometry x="911.0700000000002" y="296.05" width="48.93" height="20" as="geometry" />
        </mxCell>
        <mxCell id="cjOnqs_CUeYG5httte-h-459" value="" style="endArrow=none;html=1;rounded=0;" edge="1" parent="1">
          <mxGeometry width="50" height="50" relative="1" as="geometry">
            <mxPoint x="850" y="306.0499999999998" as="sourcePoint" />
            <mxPoint x="849.9999999999995" y="261.05" as="targetPoint" />
          </mxGeometry>
        </mxCell>
        <mxCell id="cjOnqs_CUeYG5httte-h-460" value="" style="endArrow=none;html=1;rounded=0;exitX=-0.141;exitY=0.497;exitDx=0;exitDy=0;exitPerimeter=0;" edge="1" parent="1" source="cjOnqs_CUeYG5httte-h-461">
          <mxGeometry width="50" height="50" relative="1" as="geometry">
            <mxPoint x="910" y="349.98" as="sourcePoint" />
            <mxPoint x="849.9999999999991" y="349.97999999999996" as="targetPoint" />
          </mxGeometry>
        </mxCell>
        <mxCell id="cjOnqs_CUeYG5httte-h-461" value="" style="aspect=fixed;perimeter=ellipsePerimeter;html=1;align=center;shadow=0;dashed=0;spacingTop=3;image;image=img/lib/active_directory/folder.svg;" vertex="1" parent="1">
          <mxGeometry x="890" y="340" width="14.6" height="20" as="geometry" />
        </mxCell>
        <mxCell id="cjOnqs_CUeYG5httte-h-462" value="RightSidebar" style="text;html=1;strokeColor=none;fillColor=none;align=center;verticalAlign=middle;whiteSpace=wrap;rounded=0;" vertex="1" parent="1">
          <mxGeometry x="911.07" y="340" width="88.93" height="20" as="geometry" />
        </mxCell>
        <mxCell id="cjOnqs_CUeYG5httte-h-463" value="" style="endArrow=none;html=1;rounded=0;" edge="1" parent="1">
          <mxGeometry width="50" height="50" relative="1" as="geometry">
            <mxPoint x="850" y="349.9999999999997" as="sourcePoint" />
            <mxPoint x="849.9999999999995" y="304.99999999999994" as="targetPoint" />
          </mxGeometry>
        </mxCell>
        <mxCell id="cjOnqs_CUeYG5httte-h-464" value="" style="shape=partialRectangle;whiteSpace=wrap;html=1;top=0;left=0;fillColor=none;rotation=90;" vertex="1" parent="1">
          <mxGeometry x="845.22" y="353.74" width="47.04" height="37.47" as="geometry" />
        </mxCell>
        <mxCell id="cjOnqs_CUeYG5httte-h-465" value="index.tsx" style="text;html=1;strokeColor=none;fillColor=none;align=center;verticalAlign=middle;whiteSpace=wrap;rounded=0;" vertex="1" parent="1">
          <mxGeometry x="912.1" y="387.37" width="57.9" height="20" as="geometry" />
        </mxCell>
        <mxCell id="cjOnqs_CUeYG5httte-h-466" value="" style="verticalLabelPosition=bottom;html=1;verticalAlign=top;strokeWidth=1;align=center;outlineConnect=0;dashed=0;outlineConnect=0;shape=mxgraph.aws3d.file;aspect=fixed;strokeColor=#292929;" vertex="1" parent="1">
          <mxGeometry x="890" y="382.3699999999998" width="13.09" height="30" as="geometry" />
        </mxCell>
        <mxCell id="cjOnqs_CUeYG5httte-h-467" value="" style="shape=partialRectangle;whiteSpace=wrap;html=1;top=0;left=0;fillColor=none;rotation=90;" vertex="1" parent="1">
          <mxGeometry x="540" y="180" width="47.04" height="37.47" as="geometry" />
        </mxCell>
        <mxCell id="cjOnqs_CUeYG5httte-h-468" value="endPoint.ts" style="text;html=1;strokeColor=none;fillColor=none;align=center;verticalAlign=middle;whiteSpace=wrap;rounded=0;" vertex="1" parent="1">
          <mxGeometry x="606.88" y="213.63" width="75.51" height="20" as="geometry" />
        </mxCell>
        <mxCell id="cjOnqs_CUeYG5httte-h-469" value="" style="verticalLabelPosition=bottom;html=1;verticalAlign=top;strokeWidth=1;align=center;outlineConnect=0;dashed=0;outlineConnect=0;shape=mxgraph.aws3d.file;aspect=fixed;strokeColor=#292929;" vertex="1" parent="1">
          <mxGeometry x="584.78" y="208.62999999999977" width="13.09" height="30" as="geometry" />
        </mxCell>
        <mxCell id="cjOnqs_CUeYG5httte-h-470" value="" style="shape=partialRectangle;whiteSpace=wrap;html=1;top=0;left=0;fillColor=none;rotation=90;" vertex="1" parent="1">
          <mxGeometry x="540" y="225.69" width="47.04" height="37.47" as="geometry" />
        </mxCell>
        <mxCell id="cjOnqs_CUeYG5httte-h-471" value="layout.ts" style="text;html=1;strokeColor=none;fillColor=none;align=center;verticalAlign=middle;whiteSpace=wrap;rounded=0;" vertex="1" parent="1">
          <mxGeometry x="606.88" y="259.32" width="75.51" height="20" as="geometry" />
        </mxCell>
        <mxCell id="cjOnqs_CUeYG5httte-h-472" value="" style="verticalLabelPosition=bottom;html=1;verticalAlign=top;strokeWidth=1;align=center;outlineConnect=0;dashed=0;outlineConnect=0;shape=mxgraph.aws3d.file;aspect=fixed;strokeColor=#292929;" vertex="1" parent="1">
          <mxGeometry x="584.78" y="254.31999999999977" width="13.09" height="30" as="geometry" />
        </mxCell>
        <mxCell id="cjOnqs_CUeYG5httte-h-473" value="" style="shape=partialRectangle;whiteSpace=wrap;html=1;top=0;left=0;fillColor=none;rotation=90;" vertex="1" parent="1">
          <mxGeometry x="540" y="272.5" width="47.04" height="37.47" as="geometry" />
        </mxCell>
        <mxCell id="cjOnqs_CUeYG5httte-h-474" value="menu.ts" style="text;html=1;strokeColor=none;fillColor=none;align=center;verticalAlign=middle;whiteSpace=wrap;rounded=0;" vertex="1" parent="1">
          <mxGeometry x="606.88" y="306.13" width="75.51" height="20" as="geometry" />
        </mxCell>
        <mxCell id="cjOnqs_CUeYG5httte-h-475" value="" style="verticalLabelPosition=bottom;html=1;verticalAlign=top;strokeWidth=1;align=center;outlineConnect=0;dashed=0;outlineConnect=0;shape=mxgraph.aws3d.file;aspect=fixed;strokeColor=#292929;" vertex="1" parent="1">
          <mxGeometry x="584.78" y="301.12999999999977" width="13.09" height="30" as="geometry" />
        </mxCell>
        <mxCell id="cjOnqs_CUeYG5httte-h-476" value="" style="shape=partialRectangle;whiteSpace=wrap;html=1;top=0;left=0;fillColor=none;rotation=90;" vertex="1" parent="1">
          <mxGeometry x="540" y="317.5" width="47.04" height="37.47" as="geometry" />
        </mxCell>
        <mxCell id="cjOnqs_CUeYG5httte-h-477" value="statusConfiguration.ts" style="text;html=1;strokeColor=none;fillColor=none;align=center;verticalAlign=middle;whiteSpace=wrap;rounded=0;" vertex="1" parent="1">
          <mxGeometry x="606.88" y="351.13" width="143.12" height="20" as="geometry" />
        </mxCell>
        <mxCell id="cjOnqs_CUeYG5httte-h-478" value="" style="verticalLabelPosition=bottom;html=1;verticalAlign=top;strokeWidth=1;align=center;outlineConnect=0;dashed=0;outlineConnect=0;shape=mxgraph.aws3d.file;aspect=fixed;strokeColor=#292929;" vertex="1" parent="1">
          <mxGeometry x="584.78" y="346.12999999999977" width="13.09" height="30" as="geometry" />
        </mxCell>
        <mxCell id="cjOnqs_CUeYG5httte-h-479" value="" style="shape=partialRectangle;whiteSpace=wrap;html=1;top=0;left=0;fillColor=none;rotation=90;" vertex="1" parent="1">
          <mxGeometry x="539.64" y="363.19" width="47.04" height="37.47" as="geometry" />
        </mxCell>
        <mxCell id="cjOnqs_CUeYG5httte-h-480" value="warehouse.ts" style="text;html=1;strokeColor=none;fillColor=none;align=center;verticalAlign=middle;whiteSpace=wrap;rounded=0;" vertex="1" parent="1">
          <mxGeometry x="606.52" y="396.82" width="93.48" height="20" as="geometry" />
        </mxCell>
        <mxCell id="cjOnqs_CUeYG5httte-h-481" value="" style="verticalLabelPosition=bottom;html=1;verticalAlign=top;strokeWidth=1;align=center;outlineConnect=0;dashed=0;outlineConnect=0;shape=mxgraph.aws3d.file;aspect=fixed;strokeColor=#292929;" vertex="1" parent="1">
          <mxGeometry x="584.42" y="391.81999999999977" width="13.09" height="30" as="geometry" />
        </mxCell>
        <mxCell id="cjOnqs_CUeYG5httte-h-482" value="" style="shape=partialRectangle;whiteSpace=wrap;html=1;top=0;left=0;fillColor=none;rotation=90;" vertex="1" parent="1">
          <mxGeometry x="540" y="408.87" width="47.04" height="37.47" as="geometry" />
        </mxCell>
        <mxCell id="cjOnqs_CUeYG5httte-h-483" value="warehouseList.ts" style="text;html=1;strokeColor=none;fillColor=none;align=center;verticalAlign=middle;whiteSpace=wrap;rounded=0;" vertex="1" parent="1">
          <mxGeometry x="606.88" y="442.5" width="113.12" height="20" as="geometry" />
        </mxCell>
        <mxCell id="cjOnqs_CUeYG5httte-h-484" value="" style="verticalLabelPosition=bottom;html=1;verticalAlign=top;strokeWidth=1;align=center;outlineConnect=0;dashed=0;outlineConnect=0;shape=mxgraph.aws3d.file;aspect=fixed;strokeColor=#292929;" vertex="1" parent="1">
          <mxGeometry x="584.78" y="437.4999999999998" width="13.09" height="30" as="geometry" />
        </mxCell>
        <mxCell id="cjOnqs_CUeYG5httte-h-485" value="" style="endArrow=none;html=1;rounded=0;exitX=-0.141;exitY=0.497;exitDx=0;exitDy=0;exitPerimeter=0;" edge="1" parent="1" source="cjOnqs_CUeYG5httte-h-486">
          <mxGeometry width="50" height="50" relative="1" as="geometry">
            <mxPoint x="100" y="222.48" as="sourcePoint" />
            <mxPoint x="39.99999999999909" y="222.4799999999999" as="targetPoint" />
          </mxGeometry>
        </mxCell>
        <mxCell id="cjOnqs_CUeYG5httte-h-486" value="" style="aspect=fixed;perimeter=ellipsePerimeter;html=1;align=center;shadow=0;dashed=0;spacingTop=3;image;image=img/lib/active_directory/folder.svg;" vertex="1" parent="1">
          <mxGeometry x="80" y="212.5" width="14.6" height="20" as="geometry" />
        </mxCell>
        <mxCell id="cjOnqs_CUeYG5httte-h-487" value="fonts" style="text;html=1;strokeColor=none;fillColor=none;align=center;verticalAlign=middle;whiteSpace=wrap;rounded=0;" vertex="1" parent="1">
          <mxGeometry x="101.07000000000016" y="212.5" width="48.93" height="20" as="geometry" />
        </mxCell>
        <mxCell id="cjOnqs_CUeYG5httte-h-488" value="" style="endArrow=none;html=1;rounded=0;" edge="1" parent="1">
          <mxGeometry width="50" height="50" relative="1" as="geometry">
            <mxPoint x="40" y="222.49999999999977" as="sourcePoint" />
            <mxPoint x="39.99999999999932" y="177.5" as="targetPoint" />
          </mxGeometry>
        </mxCell>
        <mxCell id="cjOnqs_CUeYG5httte-h-489" value="" style="endArrow=none;html=1;rounded=0;exitX=-0.141;exitY=0.497;exitDx=0;exitDy=0;exitPerimeter=0;" edge="1" parent="1" source="cjOnqs_CUeYG5httte-h-490">
          <mxGeometry width="50" height="50" relative="1" as="geometry">
            <mxPoint x="100" y="264.98" as="sourcePoint" />
            <mxPoint x="39.99999999999909" y="264.9799999999999" as="targetPoint" />
          </mxGeometry>
        </mxCell>
        <mxCell id="cjOnqs_CUeYG5httte-h-490" value="" style="aspect=fixed;perimeter=ellipsePerimeter;html=1;align=center;shadow=0;dashed=0;spacingTop=3;image;image=img/lib/active_directory/folder.svg;" vertex="1" parent="1">
          <mxGeometry x="80" y="255" width="14.6" height="20" as="geometry" />
        </mxCell>
        <mxCell id="cjOnqs_CUeYG5httte-h-491" value="images" style="text;html=1;strokeColor=none;fillColor=none;align=center;verticalAlign=middle;whiteSpace=wrap;rounded=0;" vertex="1" parent="1">
          <mxGeometry x="101.07000000000016" y="255" width="48.93" height="20" as="geometry" />
        </mxCell>
        <mxCell id="cjOnqs_CUeYG5httte-h-492" value="" style="endArrow=none;html=1;rounded=0;" edge="1" parent="1">
          <mxGeometry width="50" height="50" relative="1" as="geometry">
            <mxPoint x="40" y="264.9999999999998" as="sourcePoint" />
            <mxPoint x="39.99999999999932" y="220" as="targetPoint" />
          </mxGeometry>
        </mxCell>
        <mxCell id="cjOnqs_CUeYG5httte-h-493" value="" style="endArrow=none;html=1;rounded=0;exitX=-0.141;exitY=0.497;exitDx=0;exitDy=0;exitPerimeter=0;" edge="1" parent="1" source="cjOnqs_CUeYG5httte-h-494">
          <mxGeometry width="50" height="50" relative="1" as="geometry">
            <mxPoint x="100" y="308.14" as="sourcePoint" />
            <mxPoint x="39.99999999999909" y="308.1399999999999" as="targetPoint" />
          </mxGeometry>
        </mxCell>
        <mxCell id="cjOnqs_CUeYG5httte-h-494" value="" style="aspect=fixed;perimeter=ellipsePerimeter;html=1;align=center;shadow=0;dashed=0;spacingTop=3;image;image=img/lib/active_directory/folder.svg;" vertex="1" parent="1">
          <mxGeometry x="80" y="298.15999999999997" width="14.6" height="20" as="geometry" />
        </mxCell>
        <mxCell id="cjOnqs_CUeYG5httte-h-495" value="scss" style="text;html=1;strokeColor=none;fillColor=none;align=center;verticalAlign=middle;whiteSpace=wrap;rounded=0;" vertex="1" parent="1">
          <mxGeometry x="101.07000000000016" y="298.15999999999997" width="48.93" height="20" as="geometry" />
        </mxCell>
        <mxCell id="cjOnqs_CUeYG5httte-h-496" value="" style="endArrow=none;html=1;rounded=0;" edge="1" parent="1">
          <mxGeometry width="50" height="50" relative="1" as="geometry">
            <mxPoint x="40" y="308.15999999999974" as="sourcePoint" />
            <mxPoint x="39.99999999999932" y="263.15999999999997" as="targetPoint" />
          </mxGeometry>
        </mxCell>
        <mxCell id="cjOnqs_CUeYG5httte-h-497" value="" style="shape=partialRectangle;whiteSpace=wrap;html=1;top=0;left=0;fillColor=none;rotation=90;" vertex="1" parent="1">
          <mxGeometry x="80" y="323.87" width="47.04" height="37.47" as="geometry" />
        </mxCell>
        <mxCell id="cjOnqs_CUeYG5httte-h-498" value="app.scss" style="text;html=1;strokeColor=none;fillColor=none;align=center;verticalAlign=middle;whiteSpace=wrap;rounded=0;" vertex="1" parent="1">
          <mxGeometry x="146.88" y="357.5" width="73.12" height="20" as="geometry" />
        </mxCell>
        <mxCell id="cjOnqs_CUeYG5httte-h-499" value="" style="verticalLabelPosition=bottom;html=1;verticalAlign=top;strokeWidth=1;align=center;outlineConnect=0;dashed=0;outlineConnect=0;shape=mxgraph.aws3d.file;aspect=fixed;strokeColor=#292929;" vertex="1" parent="1">
          <mxGeometry x="124.77999999999997" y="352.4999999999998" width="13.09" height="30" as="geometry" />
        </mxCell>
        <mxCell id="cjOnqs_CUeYG5httte-h-500" value="" style="endArrow=none;html=1;rounded=0;exitX=-0.141;exitY=0.497;exitDx=0;exitDy=0;exitPerimeter=0;" edge="1" parent="1" source="cjOnqs_CUeYG5httte-h-501">
          <mxGeometry width="50" height="50" relative="1" as="geometry">
            <mxPoint x="188.44" y="431.03" as="sourcePoint" />
            <mxPoint x="128.4399999999991" y="431.0299999999999" as="targetPoint" />
          </mxGeometry>
        </mxCell>
        <mxCell id="cjOnqs_CUeYG5httte-h-501" value="" style="aspect=fixed;perimeter=ellipsePerimeter;html=1;align=center;shadow=0;dashed=0;spacingTop=3;image;image=img/lib/active_directory/folder.svg;" vertex="1" parent="1">
          <mxGeometry x="168.44" y="421.05" width="14.6" height="20" as="geometry" />
        </mxCell>
        <mxCell id="cjOnqs_CUeYG5httte-h-502" value="config" style="text;html=1;strokeColor=none;fillColor=none;align=center;verticalAlign=middle;whiteSpace=wrap;rounded=0;" vertex="1" parent="1">
          <mxGeometry x="189.51000000000016" y="421.05" width="48.93" height="20" as="geometry" />
        </mxCell>
        <mxCell id="cjOnqs_CUeYG5httte-h-503" value="" style="endArrow=none;html=1;rounded=0;" edge="1" parent="1">
          <mxGeometry width="50" height="50" relative="1" as="geometry">
            <mxPoint x="128.44" y="431.0499999999998" as="sourcePoint" />
            <mxPoint x="128.43999999999932" y="386.05" as="targetPoint" />
          </mxGeometry>
        </mxCell>
        <mxCell id="cjOnqs_CUeYG5httte-h-504" value="" style="shape=partialRectangle;whiteSpace=wrap;html=1;top=0;left=0;fillColor=none;rotation=90;" vertex="1" parent="1">
          <mxGeometry x="168.44" y="446.34000000000003" width="47.04" height="37.47" as="geometry" />
        </mxCell>
        <mxCell id="cjOnqs_CUeYG5httte-h-505" value="dark-mode.scss" style="text;html=1;strokeColor=none;fillColor=none;align=center;verticalAlign=middle;whiteSpace=wrap;rounded=0;" vertex="1" parent="1">
          <mxGeometry x="235.32" y="479.97" width="124.68" height="20" as="geometry" />
        </mxCell>
        <mxCell id="cjOnqs_CUeYG5httte-h-506" value="" style="verticalLabelPosition=bottom;html=1;verticalAlign=top;strokeWidth=1;align=center;outlineConnect=0;dashed=0;outlineConnect=0;shape=mxgraph.aws3d.file;aspect=fixed;strokeColor=#292929;" vertex="1" parent="1">
          <mxGeometry x="213.21999999999997" y="474.9699999999998" width="13.09" height="30" as="geometry" />
        </mxCell>
        <mxCell id="cjOnqs_CUeYG5httte-h-507" value="" style="shape=partialRectangle;whiteSpace=wrap;html=1;top=0;left=0;fillColor=none;rotation=90;" vertex="1" parent="1">
          <mxGeometry x="168.44" y="494.44000000000005" width="47.04" height="37.47" as="geometry" />
        </mxCell>
        <mxCell id="cjOnqs_CUeYG5httte-h-508" value="light-mode.scss" style="text;html=1;strokeColor=none;fillColor=none;align=center;verticalAlign=middle;whiteSpace=wrap;rounded=0;" vertex="1" parent="1">
          <mxGeometry x="235.32" y="528.07" width="124.68" height="20" as="geometry" />
        </mxCell>
        <mxCell id="cjOnqs_CUeYG5httte-h-509" value="" style="verticalLabelPosition=bottom;html=1;verticalAlign=top;strokeWidth=1;align=center;outlineConnect=0;dashed=0;outlineConnect=0;shape=mxgraph.aws3d.file;aspect=fixed;strokeColor=#292929;" vertex="1" parent="1">
          <mxGeometry x="213.21999999999997" y="523.0699999999998" width="13.09" height="30" as="geometry" />
        </mxCell>
        <mxCell id="cjOnqs_CUeYG5httte-h-510" value="" style="shape=partialRectangle;whiteSpace=wrap;html=1;top=0;left=0;fillColor=none;rotation=90;" vertex="1" parent="1">
          <mxGeometry x="168.44" y="540.11" width="47.04" height="37.47" as="geometry" />
        </mxCell>
        <mxCell id="cjOnqs_CUeYG5httte-h-511" value="custom-variable.scss" style="text;html=1;strokeColor=none;fillColor=none;align=center;verticalAlign=middle;whiteSpace=wrap;rounded=0;" vertex="1" parent="1">
          <mxGeometry x="235.32" y="573.74" width="154.68" height="20" as="geometry" />
        </mxCell>
        <mxCell id="cjOnqs_CUeYG5httte-h-512" value="" style="verticalLabelPosition=bottom;html=1;verticalAlign=top;strokeWidth=1;align=center;outlineConnect=0;dashed=0;outlineConnect=0;shape=mxgraph.aws3d.file;aspect=fixed;strokeColor=#292929;" vertex="1" parent="1">
          <mxGeometry x="213.21999999999997" y="568.7399999999998" width="13.09" height="30" as="geometry" />
        </mxCell>
        <mxCell id="cjOnqs_CUeYG5httte-h-513" value="" style="endArrow=none;html=1;rounded=0;exitX=-0.141;exitY=0.497;exitDx=0;exitDy=0;exitPerimeter=0;" edge="1" parent="1" source="cjOnqs_CUeYG5httte-h-514">
          <mxGeometry width="50" height="50" relative="1" as="geometry">
            <mxPoint x="188.44" y="649.77" as="sourcePoint" />
            <mxPoint x="128.43999999999915" y="649.77" as="targetPoint" />
          </mxGeometry>
        </mxCell>
        <mxCell id="cjOnqs_CUeYG5httte-h-514" value="" style="aspect=fixed;perimeter=ellipsePerimeter;html=1;align=center;shadow=0;dashed=0;spacingTop=3;image;image=img/lib/active_directory/folder.svg;" vertex="1" parent="1">
          <mxGeometry x="168.44" y="639.79" width="14.6" height="20" as="geometry" />
        </mxCell>
        <mxCell id="cjOnqs_CUeYG5httte-h-515" value="custom" style="text;html=1;strokeColor=none;fillColor=none;align=center;verticalAlign=middle;whiteSpace=wrap;rounded=0;" vertex="1" parent="1">
          <mxGeometry x="189.51000000000016" y="639.79" width="48.93" height="20" as="geometry" />
        </mxCell>
        <mxCell id="cjOnqs_CUeYG5httte-h-516" value="" style="endArrow=none;html=1;rounded=0;" edge="1" parent="1">
          <mxGeometry width="50" height="50" relative="1" as="geometry">
            <mxPoint x="128.44000000000005" y="649.7899999999997" as="sourcePoint" />
            <mxPoint x="128" y="430" as="targetPoint" />
          </mxGeometry>
        </mxCell>
        <mxCell id="cjOnqs_CUeYG5httte-h-517" value="" style="shape=partialRectangle;whiteSpace=wrap;html=1;top=0;left=0;fillColor=none;rotation=90;" vertex="1" parent="1">
          <mxGeometry x="168.44" y="665.08" width="47.04" height="37.47" as="geometry" />
        </mxCell>
        <mxCell id="cjOnqs_CUeYG5httte-h-518" value="pages" style="text;html=1;strokeColor=none;fillColor=none;align=center;verticalAlign=middle;whiteSpace=wrap;rounded=0;" vertex="1" parent="1">
          <mxGeometry x="235.32" y="698.71" width="54.68" height="20" as="geometry" />
        </mxCell>
        <mxCell id="cjOnqs_CUeYG5httte-h-520" value="" style="shape=partialRectangle;whiteSpace=wrap;html=1;top=0;left=0;fillColor=none;rotation=90;" vertex="1" parent="1">
          <mxGeometry x="168.44" y="713.1800000000001" width="47.04" height="37.47" as="geometry" />
        </mxCell>
        <mxCell id="cjOnqs_CUeYG5httte-h-521" value="plugins" style="text;html=1;strokeColor=none;fillColor=none;align=center;verticalAlign=middle;whiteSpace=wrap;rounded=0;" vertex="1" parent="1">
          <mxGeometry x="235.32" y="746.81" width="64.68" height="20" as="geometry" />
        </mxCell>
        <mxCell id="cjOnqs_CUeYG5httte-h-523" value="" style="shape=partialRectangle;whiteSpace=wrap;html=1;top=0;left=0;fillColor=none;rotation=90;" vertex="1" parent="1">
          <mxGeometry x="168.44" y="758.85" width="47.04" height="37.47" as="geometry" />
        </mxCell>
        <mxCell id="cjOnqs_CUeYG5httte-h-524" value="structure" style="text;html=1;strokeColor=none;fillColor=none;align=center;verticalAlign=middle;whiteSpace=wrap;rounded=0;" vertex="1" parent="1">
          <mxGeometry x="235.32" y="792.48" width="74.68" height="20" as="geometry" />
        </mxCell>
        <mxCell id="cjOnqs_CUeYG5httte-h-526" value="" style="aspect=fixed;perimeter=ellipsePerimeter;html=1;align=center;shadow=0;dashed=0;spacingTop=3;image;image=img/lib/active_directory/folder.svg;" vertex="1" parent="1">
          <mxGeometry x="215.48" y="697.5699999999999" width="14.6" height="20" as="geometry" />
        </mxCell>
        <mxCell id="cjOnqs_CUeYG5httte-h-527" value="" style="aspect=fixed;perimeter=ellipsePerimeter;html=1;align=center;shadow=0;dashed=0;spacingTop=3;image;image=img/lib/active_directory/folder.svg;" vertex="1" parent="1">
          <mxGeometry x="215.48" y="789.93" width="14.6" height="20" as="geometry" />
        </mxCell>
        <mxCell id="cjOnqs_CUeYG5httte-h-528" value="" style="aspect=fixed;perimeter=ellipsePerimeter;html=1;align=center;shadow=0;dashed=0;spacingTop=3;image;image=img/lib/active_directory/folder.svg;" vertex="1" parent="1">
          <mxGeometry x="215.48" y="746.81" width="14.6" height="20" as="geometry" />
        </mxCell>
        <mxCell id="cjOnqs_CUeYG5httte-h-529" value="" style="shape=partialRectangle;whiteSpace=wrap;html=1;top=0;left=0;fillColor=none;rotation=90;" vertex="1" parent="1">
          <mxGeometry x="168.44" y="804.1700000000001" width="47.04" height="37.47" as="geometry" />
        </mxCell>
        <mxCell id="cjOnqs_CUeYG5httte-h-530" value="components" style="text;html=1;strokeColor=none;fillColor=none;align=center;verticalAlign=middle;whiteSpace=wrap;rounded=0;" vertex="1" parent="1">
          <mxGeometry x="235.32" y="837.8" width="94.68" height="20" as="geometry" />
        </mxCell>
        <mxCell id="cjOnqs_CUeYG5httte-h-531" value="" style="aspect=fixed;perimeter=ellipsePerimeter;html=1;align=center;shadow=0;dashed=0;spacingTop=3;image;image=img/lib/active_directory/folder.svg;" vertex="1" parent="1">
          <mxGeometry x="215.48" y="835.25" width="14.6" height="20" as="geometry" />
        </mxCell>
      </root>
    </mxGraphModel>
  </diagram>
</mxfile>
